<svg width="58" height="58" viewBox="0 0 58 58" fill="none" xmlns="http://www.w3.org/2000/svg">
<path d="M32.8074 20.4666C33.6535 20.4666 34.3972 20.1349 34.9916 19.6194C35.586 20.1349 36.3297 20.4665 37.1757 20.4665C38.3352 20.4665 39.3095 19.8393 39.9601 18.9741C40.6104 18.1094 40.9832 16.9603 40.9832 15.7333C40.9832 14.5063 40.6104 13.3572 39.9601 12.4924C39.3095 11.6273 38.3352 11 37.1757 11C36.3297 11 35.586 11.3316 34.9916 11.8472C34.3972 11.3316 33.6535 11 32.8074 11C31.648 11 30.6736 11.6273 30.0231 12.4924C29.3728 13.3572 29 14.5063 29 15.7333C29 16.9603 29.3728 18.1094 30.0231 18.9741C30.6736 19.8393 31.648 20.4666 32.8074 20.4666Z" fill="white" stroke="black" stroke-width="2"/>
<path d="M44 29C44 37.2843 37.2843 44 29 44C20.7157 44 14 37.2843 14 29C14 20.7157 20.7157 14 29 14C37.2843 14 44 20.7157 44 29Z" fill="#E50050" stroke="black" stroke-linecap="round"/>
<path d="M19 31.5C19 32.3304 18.5532 33 18 33C17.4468 33 17 32.3261 17 31.5C17 30.6739 17.4468 30 18 30C18.5532 30 19 30.6739 19 31.5Z" fill="white"/>
<path d="M20 36C20.5523 36 21 35.3284 21 34.5C21 33.6716 20.5523 33 20 33C19.4477 33 19 33.6716 19 34.5C19 35.3284 19.4477 36 20 36Z" fill="white"/>
<path d="M32.8074 19.9666C33.6695 19.9666 34.426 19.5534 34.9916 18.9183C35.5572 19.5534 36.3137 19.9665 37.1757 19.9665C38.1431 19.9665 38.9812 19.444 39.5605 18.6736C40.1397 17.9034 40.4832 16.8622 40.4832 15.7333C40.4832 14.6043 40.1397 13.5631 39.5605 12.7929C38.9812 12.0226 38.1431 11.5 37.1757 11.5C36.3137 11.5 35.5572 11.9132 34.9916 12.5482C34.426 11.9132 33.6695 11.5 32.8074 11.5C31.8401 11.5 31.002 12.0226 30.4227 12.7929C29.8435 13.5631 29.5 14.6043 29.5 15.7333C29.5 16.8622 29.8435 17.9034 30.4227 18.6736C31.002 19.444 31.8401 19.9666 32.8074 19.9666Z" fill="white" stroke="black"/>
<path fill-rule="evenodd" clip-rule="evenodd" d="M34.9916 19.6194C34.3972 20.1349 33.6535 20.4666 32.8074 20.4666C31.648 20.4666 30.6736 19.8393 30.0231 18.9741C29.3728 18.1094 29 16.9603 29 15.7333C29 14.5063 29.3728 13.3572 30.0231 12.4924C30.6736 11.6273 31.648 11 32.8074 11C33.6535 11 34.3972 11.3316 34.9916 11.8472C35.586 11.3316 36.3297 11 37.1757 11C38.3352 11 39.3095 11.6273 39.9601 12.4924C40.6104 13.3572 40.9832 14.5063 40.9832 15.7333C40.9832 16.9603 40.6104 18.1094 39.9601 18.9741C39.3095 19.8393 38.3352 20.4665 37.1757 20.4665C36.3297 20.4665 35.586 20.1349 34.9916 19.6194ZM34.3212 18.8779C33.8844 19.2505 33.3649 19.4666 32.8074 19.4666C31.2569 19.4666 30 17.7951 30 15.7333C30 13.6714 31.2569 12 32.8074 12C33.3649 12 33.8844 12.2161 34.3212 12.5887C34.5757 12.8057 34.8021 13.0759 34.9916 13.3875C35.1811 13.0759 35.4075 12.8057 35.6619 12.5887C36.0987 12.2161 36.6183 12 37.1757 12C38.7262 12 39.9832 13.6714 39.9832 15.7333C39.9832 17.7951 38.7262 19.4665 37.1757 19.4665C36.6183 19.4665 36.0987 19.2505 35.6619 18.8779C35.4075 18.6608 35.1811 18.3906 34.9916 18.079C34.8021 18.3906 34.5757 18.6608 34.3212 18.8779Z" fill="#E50050"/>
<path d="M33.7808 17.1152C33.7808 16.5546 33.3428 16.0991 32.8038 16.0991C32.2647 16.0991 31.8268 16.5546 31.8268 17.1152C31.8268 17.6757 32.2647 18.1312 32.8038 18.1312C33.3428 18.1312 33.7808 17.6757 33.7808 17.1152Z" fill="#231916"/>
<path d="M38.1491 17.1152C38.1491 16.5546 37.7111 16.0991 37.1721 16.0991C36.633 16.0991 36.1951 16.5546 36.1951 17.1152C36.1951 17.6757 36.633 18.1312 37.1721 18.1312C37.7111 18.1312 38.1491 17.6757 38.1491 17.1152Z" fill="#231916"/>
<path d="M34.0778 32.0685L35.3026 33.3191C36.7626 34.8099 36.2829 37.3002 34.3736 38.142L33.1125 38.698C31.8233 39.2665 30.3286 39.1033 29.1923 38.2702L27.327 36.9026C26.9469 36.6239 26.5924 36.3119 26.2676 35.9704L25.7142 35.3885C24.4254 34.0332 23.3698 32.4739 22.5903 30.7739L22.2556 30.044C22.0591 29.6156 21.9012 29.1705 21.7836 28.7141L21.2067 26.4742C20.8552 25.1097 21.259 23.6615 22.2656 22.6756L23.2502 21.7113C24.741 20.2512 27.2314 20.7309 28.0732 22.6402L28.7794 24.242C29.1765 25.1427 28.6484 26.1812 27.6866 26.3908C26.7158 26.6024 26.1891 27.6572 26.6033 28.5604L27.3908 30.2778C27.5324 30.5865 27.724 30.8696 27.958 31.1157L29.26 32.4848C29.9447 33.2049 31.1197 33.1077 31.6769 32.2849C32.2287 31.4698 33.3891 31.3652 34.0778 32.0685Z" fill="white" stroke="#E50050" stroke-linecap="round"/>
<path d="M33.9826 21.5067C34.6214 23.4244 37.8178 24.7031 39.7355 23.4246" stroke="black" stroke-linecap="round"/>
</svg>
