<svg width="56" height="56" viewBox="0 0 56 56" fill="none" xmlns="http://www.w3.org/2000/svg">
<path d="M28.7071 19.2929C28.3166 18.9024 27.6834 18.9024 27.2929 19.2929L20.9289 25.6569C20.5384 26.0474 20.5384 26.6805 20.9289 27.0711C21.3195 27.4616 21.9526 27.4616 22.3431 27.0711L28 21.4142L33.6569 27.0711C34.0474 27.4616 34.6805 27.4616 35.0711 27.0711C35.4616 26.6805 35.4616 26.0474 35.0711 25.6569L28.7071 19.2929ZM27 37C27 37.5523 27.4477 38 28 38C28.5523 38 29 37.5523 29 37H27ZM27 20V37H29V20H27Z" fill="#999999"/>
</svg>
