<svg width="80" height="80" viewBox="0 0 80 80" fill="none" xmlns="http://www.w3.org/2000/svg">
<g clip-path="url(#clip0_539_1344)">
<path d="M40 7.21C50.68 7.21 51.9467 7.25 56.1667 7.44333C67.0067 7.93667 72.07 13.08 72.5633 23.84C72.7567 28.0567 72.7933 29.3233 72.7933 40.0033C72.7933 50.6867 72.7533 51.95 72.5633 56.1667C72.0667 66.9167 67.0167 72.07 56.1667 72.5633C51.9467 72.7567 50.6867 72.7967 40 72.7967C29.32 72.7967 28.0533 72.7567 23.8367 72.5633C12.97 72.0667 7.93333 66.9 7.44 56.1633C7.24667 51.9467 7.20667 50.6833 7.20667 40C7.20667 29.32 7.25 28.0567 7.44 23.8367C7.93667 13.08 12.9867 7.93333 23.8367 7.44C28.0567 7.25 29.32 7.21 40 7.21ZM40 0C29.1367 0 27.7767 0.0466667 23.51 0.24C8.98333 0.906667 0.91 8.96667 0.243333 23.5067C0.0466667 27.7767 0 29.1367 0 40C0 50.8633 0.0466667 52.2267 0.24 56.4933C0.906667 71.02 8.96667 79.0933 23.5067 79.76C27.7767 79.9533 29.1367 80 40 80C50.8633 80 52.2267 79.9533 56.4933 79.76C71.0067 79.0933 79.1 71.0333 79.7567 56.4933C79.9533 52.2267 80 50.8633 80 40C80 29.1367 79.9533 27.7767 79.76 23.51C79.1067 8.99667 71.0367 0.91 56.4967 0.243333C52.2267 0.0466667 50.8633 0 40 0ZM40 19.46C28.6567 19.46 19.46 28.6567 19.46 40C19.46 51.3433 28.6567 60.5433 40 60.5433C51.3433 60.5433 60.54 51.3467 60.54 40C60.54 28.6567 51.3433 19.46 40 19.46ZM40 53.3333C32.6367 53.3333 26.6667 47.3667 26.6667 40C26.6667 32.6367 32.6367 26.6667 40 26.6667C47.3633 26.6667 53.3333 32.6367 53.3333 40C53.3333 47.3667 47.3633 53.3333 40 53.3333ZM61.3533 13.85C58.7 13.85 56.55 16 56.55 18.65C56.55 21.3 58.7 23.45 61.3533 23.45C64.0033 23.45 66.15 21.3 66.15 18.65C66.15 16 64.0033 13.85 61.3533 13.85Z" fill="#E50050"/>
</g>
<defs>
<clipPath id="clip0_539_1344">
<rect width="80" height="80" fill="white"/>
</clipPath>
</defs>
</svg>
