<svg width="50" height="50" viewBox="0 0 50 50" fill="none" xmlns="http://www.w3.org/2000/svg">
<path fill-rule="evenodd" clip-rule="evenodd" d="M22.4001 10.5C17.9513 10.5 14.3103 13.9584 14.0188 18.3333H14.6667C15.7712 18.3333 16.6667 19.2288 16.6667 20.3333V33C16.6667 34.1046 15.7712 35 14.6667 35H12C10.8954 35 10 34.1046 10 33V20.3333C10 19.2288 10.8954 18.3333 12 18.3333H13.0168C13.3098 13.4057 17.3988 9.5 22.4001 9.5H27.7666C32.7679 9.5 36.8569 13.4057 37.1499 18.3333H38C39.1046 18.3333 40 19.2288 40 20.3333V33C40 34.1046 39.1046 35 38 35H37.1667V39.0001C37.1667 40.9331 35.5997 42.5001 33.6667 42.5001H28.6032C28.2919 44.1142 26.8717 45.3333 25.1667 45.3333C23.2337 45.3333 21.6667 43.7663 21.6667 41.8333C21.6667 39.9003 23.2337 38.3333 25.1667 38.3333C26.9873 38.3333 28.4832 39.7234 28.651 41.5001H33.6667C35.0474 41.5001 36.1667 40.3808 36.1667 39.0001V35H35.3333C34.2288 35 33.3333 34.1046 33.3333 33V20.3333C33.3333 19.2288 34.2288 18.3333 35.3333 18.3333H36.1479C35.8564 13.9584 32.2154 10.5 27.7666 10.5H22.4001Z" fill="#686868"/>
</svg>
