<svg width="50" height="50" viewBox="0 0 50 50" fill="none" xmlns="http://www.w3.org/2000/svg">
<g clip-path="url(#clip0_530_397)">
<circle cx="25" cy="25" r="24.5" stroke="#686868"/>
<path d="M24.9176 40C23.3649 40 22.2502 38.9617 22.2502 37.5155C22.2502 36.1063 23.3649 35.1051 24.9176 35.1051C26.4304 35.1051 27.5052 36.1063 27.5052 37.5155C27.5052 38.9617 26.4304 40 24.9176 40ZM16 16.3782C17.5128 12.6329 21.4142 10 25.5147 10C31.327 10 35.2285 13.6341 34.9896 18.7886C34.8304 21.4586 33.3574 24.0173 29.4958 26.7244C27.545 28.0964 27.1469 28.8381 27.1868 31.508L22.4891 31.5822C22.4493 27.6885 23.6834 25.3152 26.709 23.2386C29.5754 21.2361 30.2124 20.0865 30.292 18.5661C30.4114 16.0816 28.4209 14.3758 25.5147 14.3758C23.3251 14.3758 21.255 15.822 20.3792 17.9357L16 16.3782Z" fill="#686868"/>
</g>
<defs>
<clipPath id="clip0_530_397">
<rect width="50" height="50" fill="white"/>
</clipPath>
</defs>
</svg>
