<svg width="125" height="140" viewBox="0 0 125 140" fill="none" xmlns="http://www.w3.org/2000/svg">
<g clip-path="url(#clip0_77_4984)">
<path d="M37.6489 11.0822L88.164 130.895C88.7749 132.34 88.0044 134.041 86.4499 134.693C84.8953 135.344 83.1374 134.696 82.5265 133.251C82.53 133.265 35.3024 12.0484 35.2915 12.0367C34.7844 10.6885 36.9356 9.60682 37.6489 11.0822Z" fill="black"/>
<path d="M76.8922 41.3199C75.4912 36.4955 70.8852 36.4122 62.8599 38.7512C57.6891 40.2583 52.2328 42.7326 48.1561 44.7976C47.0371 45.4018 46.5225 44.1759 47.6284 43.5185C52.2596 40.8997 58.3677 38.5135 66.902 36.0832C68.9027 35.5143 73.5803 34.9637 72.7055 31.7824C71.7369 28.2508 67.1371 30.5966 62.2617 32.0389C57.5917 33.4214 53.115 34.5409 48.2758 35.4523C47.1674 35.6684 47.061 34.3734 48.0718 34.1928C52.5246 33.223 56.8608 32.1802 61.047 30.9601C69.0227 28.6355 70.8493 26.6202 70.0514 23.381C69.2534 20.1417 65.3686 19.3492 58.0284 20.8327C52.6569 21.9562 47.6042 23.2649 42.869 25.03C37.0136 27.1786 32.2439 29.6666 31.8165 33.263C31.4291 36.4058 32.4602 41.4235 34.3086 43.3799C34.4918 43.5689 35.0899 44.0861 35.0899 44.0861C35.0899 44.0861 34.9172 45.0489 34.8585 45.3655C34.3668 48.1465 35.3726 52.8151 37.313 55.3293C39.2168 57.9112 43.6261 59.107 50.5947 57.6249C56.7028 56.2866 62.3869 54.7369 68.253 52.2002C74.045 49.5782 78.4246 46.3697 76.9118 41.307L76.8922 41.3199Z" fill="#E50050"/>
<path d="M58.8574 55.889C56.3424 56.6329 53.6604 57.3194 50.4134 58.0448C43.678 59.5101 38.74 58.6633 36.5177 55.66C34.3973 52.9185 33.5133 48.1093 34.013 45.3407C34.0535 45.1293 34.14 44.6337 34.2025 44.3232C33.9992 44.1483 33.7162 43.8973 33.5846 43.7653C31.6009 41.6814 30.5892 36.5039 31.0077 33.275C31.5319 29.1246 37.1459 26.5097 42.5713 24.5061C43.9745 23.9771 45.4532 23.4756 47.0615 22.9714C46.3445 19.3235 48.3183 15.6559 51.5834 14.6901C52.8266 14.3224 54.1023 14.3724 55.2864 14.834C56.1028 13.7806 57.1849 13.0332 58.4281 12.6655C61.7933 11.6701 65.2717 13.9173 66.1829 17.6715C66.3345 18.2961 66.4076 18.944 66.3988 19.6018C68.7724 20.0107 70.206 21.1534 70.6528 22.994C71.5689 26.7682 69.0781 28.9365 61.1331 31.2866C57.3035 32.4193 53.1335 33.4748 48.0125 34.6192L47.934 34.6424C47.7625 34.6931 47.7604 34.7792 47.7669 34.8058C47.7943 34.9187 48.0151 34.8819 48.0579 34.8692C52.4893 34.0071 56.7086 32.9656 61.3456 31.5941L62.1029 31.3701C62.9603 31.1165 63.8008 30.8251 64.616 30.5555C65.451 30.2729 66.2448 30.0096 67.0093 29.7835C68.7598 29.2657 72.4036 28.1879 73.2667 31.3653C73.4914 32.1962 73.3987 32.95 72.9981 33.6027C72.2672 34.7874 70.6711 35.3735 69.5351 35.7095C68.9921 35.8701 68.4569 35.9999 67.9646 36.1171C67.6026 36.2028 67.2707 36.2867 66.9833 36.3646C66.6046 36.4766 66.2331 36.5865 65.8615 36.6964C57.9951 39.0232 52.2154 41.3025 47.6646 43.8807C47.3696 44.0534 47.3099 44.2491 47.3451 44.3313C47.3668 44.389 47.4827 44.3618 47.5327 44.347C47.5828 44.3322 47.6454 44.3066 47.7065 44.2743C51.5023 42.3396 57.1647 39.7033 62.6662 38.076C70.3897 35.7914 75.8526 35.3934 77.428 40.8741C79.146 46.6901 73.4625 50.1232 68.3196 52.4706C65.3211 53.7777 62.2226 54.8936 58.8359 55.8954L58.8574 55.889Z" fill="#34AD37"/>
<path d="M58.555 13.1617C61.6273 12.253 64.8166 14.3506 65.6617 17.8324C65.8424 18.5766 65.8935 19.3235 65.8476 20.0493C68.2908 20.3664 69.7074 21.4073 70.1299 23.1482C70.9138 26.3775 69.0646 28.4129 61.0197 30.7926C56.7971 32.0415 52.4317 33.112 47.935 34.1145C47.8921 34.1272 47.8564 34.1378 47.8207 34.1483C46.9276 34.4125 47.0605 35.591 48.1349 35.38C52.7497 34.4851 57.0372 33.4091 61.4812 32.0946C61.7313 32.0207 61.9885 31.9446 62.2385 31.8706C63.9588 31.3546 65.6373 30.73 67.1449 30.284C69.9527 29.4535 72.1319 29.2505 72.7574 31.5438C73.3388 33.6864 71.3825 34.6497 69.432 35.2266C68.4889 35.5056 67.5462 35.6918 66.8889 35.8862C66.5102 35.9982 66.1316 36.1102 65.7601 36.2201C57.7437 38.5913 51.9094 40.9295 47.4379 43.4557C46.4197 44.056 46.7556 45.1246 47.6701 44.8541C47.763 44.8266 47.8598 44.7838 47.9622 44.7321C52.0847 42.6296 57.5949 40.1237 62.8034 38.5831C70.8984 36.1887 75.538 36.2478 76.9202 41.0592C78.4154 46.1149 73.9853 49.3482 68.1395 52.0174C64.9815 53.393 61.8766 54.4824 58.74 55.4101C55.9893 56.2238 53.208 56.9112 50.3319 57.5554C43.306 59.0852 38.8723 57.9183 36.9694 55.3476C35.0295 52.8448 34.0427 48.1799 34.5534 45.3938C34.6127 45.0701 34.7936 44.1121 34.7936 44.1121C34.7936 44.1121 34.1871 43.6007 34.0108 43.4107C32.1602 41.4655 31.15 36.4515 31.5576 33.3042C32.017 29.7071 36.8326 27.1788 42.7341 24.9917C44.3555 24.3839 46.02 23.8274 47.7101 23.3133C47.6972 23.2601 47.6859 23.2136 47.673 23.1604C46.8279 19.6786 48.6398 16.1017 51.712 15.193C52.9766 14.8189 54.2843 14.9377 55.4553 15.503C56.2134 14.3671 57.292 13.5424 58.5567 13.1684M58.318 12.185C57.1034 12.5442 56.006 13.2605 55.1472 14.2338C53.9627 13.8649 52.6879 13.8503 51.4733 14.2095C48.0725 15.2155 45.9477 18.8921 46.4601 22.6433C45.0233 23.0967 43.6946 23.5538 42.4185 24.0381C36.8391 26.1015 31.0507 28.8179 30.4839 33.2657C30.0522 36.5981 31.1162 41.9595 33.1829 44.1328C33.285 44.2379 33.462 44.3992 33.6286 44.5493C33.5739 44.829 33.5186 45.1373 33.4882 45.2959C32.9595 48.1656 33.8783 53.1497 36.0849 55.9938C38.4204 59.1487 43.5359 60.0641 50.4888 58.5487C53.7571 57.817 56.4534 57.1263 58.9827 56.3781C62.3907 55.3701 65.5162 54.2391 68.5218 52.9298C73.8924 50.4795 79.8049 46.8861 77.9703 40.6845C76.8809 36.8904 73.9597 35.8031 70.2644 36.0059C71.4105 35.617 72.7648 34.9814 73.4736 33.8317C73.9571 33.0477 74.0708 32.1595 73.8052 31.1912C73.0331 28.3572 70.3688 28.4545 68.3844 28.8919C70.7473 27.3953 71.8302 25.5153 71.1786 22.8309C70.7093 20.8973 69.2848 19.6664 66.9347 19.1651C66.9129 18.6018 66.8394 18.0467 66.7088 17.5084C65.7314 13.4818 61.9641 11.0851 58.306 12.1671L58.318 12.185Z" fill="black"/>
<path d="M54.8465 20.6277C54.1392 17.7182 55.5509 14.7778 57.995 14.0559C60.4391 13.3341 62.9954 15.1024 63.7027 18.0119C64.4099 20.9214 62.9982 23.8618 60.5541 24.5837C58.11 25.3056 55.5537 23.5372 54.8465 20.6277Z" fill="white"/>
<path d="M53.9413 26.356C56.3869 25.6336 57.7966 22.6914 57.0899 19.7842C56.3832 16.8771 53.8278 15.1059 51.3822 15.8282C48.9366 16.5506 47.527 19.4928 48.2337 22.4C48.9403 25.3071 51.4957 27.0783 53.9413 26.356Z" fill="white"/>
<path d="M52.8833 21.1397C52.6928 20.3558 53.2231 19.5156 54.0653 19.2667C54.9076 19.0179 55.7478 19.4532 55.9383 20.2371C56.1288 21.021 55.5986 21.8612 54.7563 22.1101C53.914 22.3589 53.0738 21.9236 52.8833 21.1397Z" fill="#231916"/>
<path d="M59.4964 19.3675C59.3059 18.5836 59.8361 17.7434 60.6784 17.4946C61.5206 17.2457 62.3609 17.681 62.5514 18.4649C62.7419 19.2489 62.2116 20.0891 61.3693 20.3379C60.5271 20.5868 59.6869 20.1515 59.4964 19.3675Z" fill="#231916"/>
<path d="M36.7203 34.6394C37.3351 34.4607 37.6217 33.4586 37.3603 32.4011C37.099 31.3435 36.3887 30.631 35.7739 30.8096C35.159 30.9883 34.8725 31.9904 35.1339 33.0479C35.3952 34.1055 36.1055 34.818 36.7203 34.6394Z" fill="white"/>
<path d="M41.601 34.6988C41.8619 35.7543 41.5755 36.7585 40.961 36.9371C40.3466 37.1156 39.6354 36.4012 39.3746 35.3456C39.1137 34.2901 39.4001 33.2858 40.0146 33.1073C40.629 32.9288 41.3402 33.6432 41.601 34.6988Z" fill="white"/>
<path d="M66.6996 86.8193C53.2449 90.7989 45.4679 88.9064 43.5962 81.1954C42.6918 77.4695 43.3828 74.3252 45.7141 71.5998C41.7734 71.605 40.3782 69.4835 39.9219 67.6039C39.0691 64.0905 40.3909 61.1796 43.2915 60.2006C43.6493 60.0664 44.0174 59.9432 44.3817 59.8355C46.0671 59.337 47.6845 59.1576 49.2729 59.3C48.6369 58.4772 48.2751 57.4596 48.1463 56.5509C47.5835 53.2863 51.0312 50.2093 57.3586 48.3378C63.6861 46.4663 67.9069 47.268 68.9569 50.3956C69.2711 51.406 69.3201 52.4593 69.1282 53.4344C70.4678 52.4259 71.9982 51.6672 73.7122 51.1602C74.0764 51.0525 74.451 50.9559 74.8288 50.8727C77.8004 50.1859 80.1607 51.8369 80.9732 55.1843C81.6294 57.8874 80.4949 60.3087 77.7679 62.0976C81.0554 63.154 83.1012 65.496 84.0089 69.2352C85.8806 76.9461 80.06 82.8605 66.698 86.8127L66.6996 86.8193ZM59.657 70.8926C59.5999 70.9095 59.5089 71.0076 59.4808 71.1441C59.4527 71.2805 59.4676 71.4683 59.7296 71.6328C61.9853 72.9161 64.3988 73.4622 66.6903 73.1902C66.7046 73.186 66.7332 73.1775 66.7546 73.1712C66.9974 73.0994 67.049 72.8705 67.0431 72.7513C67.0412 72.6806 67.0203 72.5943 66.9424 72.5889C64.2471 72.5532 61.9996 72.0292 59.6697 70.8818L59.6483 70.8881L59.657 70.8926Z" fill="#F29300"/>
<path d="M57.4812 48.8423C63.2873 47.125 67.482 47.7565 68.4413 50.6048C68.9395 52.2157 68.7708 54.1377 67.6136 55.5193C69.2656 53.6853 71.3692 52.3869 73.833 51.6581C74.183 51.5546 74.5433 51.4623 74.9068 51.3832C77.422 50.803 79.6498 52.0661 80.4478 55.3536C81.0959 58.0235 79.8458 60.5359 76.442 62.3115C80.7609 63.2336 82.6628 66.0238 83.4851 69.411C84.9296 75.3619 81.8164 81.835 66.5836 86.3405C51.3507 90.8461 45.5726 87.0027 44.1281 81.0519C43.3059 77.6647 43.6892 74.1986 46.9618 71.031C43.2798 71.4082 41.1132 70.1769 40.4539 67.4605C39.6574 64.1796 40.8818 61.5609 43.4428 60.6966C43.8006 60.5624 44.1616 60.4413 44.5115 60.3378C46.9753 59.6091 49.2781 59.6042 51.5324 60.2828C49.9158 59.7716 48.9377 58.1389 48.6895 56.4541C48.1801 53.4726 51.4768 50.6254 57.4828 48.849M66.8771 73.6755C67.7984 73.403 67.8192 72.1013 67.0041 72.0861C64.339 72.0487 62.1854 71.5325 59.9518 70.4349C59.8078 70.3778 59.668 70.3693 59.5323 70.4095C58.9467 70.5827 58.572 71.5619 59.3944 72.0804C61.678 73.3838 64.2244 74.0045 66.7025 73.7129C66.7612 73.7027 66.82 73.6924 66.87 73.6776M57.2371 47.8681C50.5955 49.8325 47.0041 53.1371 47.6093 56.7024C47.7207 57.4453 47.9416 58.1345 48.2599 58.7522C46.9588 58.7527 45.6298 58.9536 44.2658 59.357C43.8873 59.469 43.5048 59.5963 43.1185 59.739C39.9926 60.7989 38.4876 64.0273 39.3969 67.7731C39.8548 69.6593 41.1633 71.7708 44.685 72.0888C42.7308 74.7596 42.2015 77.8134 43.0624 81.36C43.9233 84.9066 46.1747 87.4653 49.6675 88.6104C53.6844 89.928 59.4489 89.4901 66.8118 87.3123C83.8872 82.2618 85.873 74.613 84.5316 69.0873C83.6643 65.5141 81.7996 63.1613 78.8459 61.935C81.1723 60.0724 82.128 57.64 81.496 55.0365C80.6142 51.4036 78.0231 49.6215 74.7325 50.3813C74.3547 50.4646 73.9587 50.5675 73.5873 50.6773C72.209 51.085 70.9385 51.6529 69.79 52.377C69.8018 51.6688 69.7023 50.9437 69.4838 50.2324C68.331 46.8077 63.7628 45.9309 57.2426 47.8594L57.2371 47.8681Z" fill="black"/>
<path d="M57.821 66.1248C60.2665 65.4024 61.6762 62.4602 60.9695 59.553C60.2628 56.6459 57.7074 54.8747 55.2618 55.597C52.8163 56.3194 51.4066 59.2616 52.1133 62.1688C52.82 65.0759 55.3754 66.8471 57.821 66.1248Z" fill="white"/>
<path d="M58.6051 62.4119C58.4146 61.6279 57.5744 61.1926 56.7321 61.4415C55.8898 61.6903 55.3596 62.5305 55.5501 63.3144C55.7406 64.0984 56.5808 64.5337 57.4231 64.2848C58.2653 64.036 58.7956 63.1958 58.6051 62.4119Z" fill="#231916"/>
<path d="M67.5823 57.7812C66.875 54.8717 64.3187 53.1033 61.8746 53.8252C59.4306 54.5471 58.0188 57.4874 58.7261 60.3969C59.4333 63.3064 61.9897 65.0748 64.4338 64.3529C66.8778 63.631 68.2896 60.6907 67.5823 57.7812Z" fill="white"/>
<path d="M65.2181 60.6398C65.0276 59.8558 64.1874 59.4205 63.3451 59.6694C62.5029 59.9182 61.9726 60.7584 62.1631 61.5423C62.3536 62.3263 63.1938 62.7616 64.0361 62.5127C64.8784 62.2639 65.4086 61.4237 65.2181 60.6398Z" fill="#231916"/>
<path d="M50.8625 79.8622C51.1234 80.9177 50.8369 81.9219 50.2225 82.1005C49.6081 82.279 48.8969 81.5646 48.6361 80.509C48.3752 79.4535 48.6616 78.4492 49.2761 78.2707C49.8905 78.0922 50.6017 78.8066 50.8625 79.8622Z" fill="white"/>
<path d="M55.0957 82.1599C55.3565 83.2154 55.0701 84.2197 54.4557 84.3982C53.8412 84.5767 53.1301 83.8623 52.8692 82.8067C52.6084 81.7512 52.8948 80.7469 53.5092 80.5684C54.1237 80.3899 54.8348 81.1043 55.0957 82.1599Z" fill="white"/>
<path d="M51.4904 107.665C51.9655 104.447 53.2665 101.808 59.8117 99.9001C64.4868 98.5375 68.8834 97.092 73.4934 95.2493C74.5526 94.8337 74.0495 93.6543 73.0911 94.0477C68.7889 95.6296 64.5541 97.0848 60.3678 98.305C52.3917 100.63 49.8833 99.8779 49.0854 96.6385C48.2874 93.399 51.2876 90.5997 58.3266 87.8922C63.4951 85.9437 68.4726 84.329 73.385 83.2822C79.4438 81.9583 84.7184 81.5189 86.7418 84.4012C88.522 86.9123 89.723 91.7881 89.234 94.5185C88.9021 96.3763 86.4525 97.5893 83.5352 98.3825C74.9962 100.764 68.8922 103.199 64.2608 105.818C63.1532 106.469 63.6678 107.695 64.7885 107.097C68.8709 105.024 74.3291 102.556 79.4929 101.051C87.5186 98.7116 92.1264 98.8016 93.5258 103.62C95.0387 108.682 90.6572 111.884 84.8667 114.513C79.0003 117.05 73.3144 118.593 67.2076 119.938C60.2387 121.42 55.8292 120.225 53.9253 117.643C51.9849 115.128 50.9949 110.462 51.4708 107.678L51.4904 107.665Z" fill="#E50050"/>
<path d="M75.5101 118.186C72.995 118.93 70.3128 119.616 67.0657 120.342C60.33 121.807 55.3917 120.96 53.1693 117.957C51.0696 115.238 50.1768 110.424 50.6661 107.644C51.2262 103.988 52.8992 101.321 59.5084 99.3659C64.7458 97.8168 68.9877 96.3626 73.2573 94.6439C73.3073 94.6291 73.5208 94.5303 73.4878 94.4261C73.4813 94.3995 73.4389 94.3195 73.2675 94.3702L73.1889 94.3935C68.2386 96.2423 64.1475 97.6234 60.3177 98.7562C52.3723 101.106 49.2329 100.603 48.3168 96.829C47.47 93.3404 50.6483 90.2493 58.0316 87.3817C60.1634 86.573 62.1438 85.8662 64.0782 85.2228C63.335 81.561 65.3095 77.8646 68.5891 76.8945C69.8324 76.5267 71.101 76.5788 72.2923 77.0384C73.1087 75.9849 74.1909 75.2375 75.4342 74.8698C78.7995 73.8743 82.278 76.1216 83.1894 79.8761C83.3345 80.4741 83.4066 81.0867 83.4073 81.7204C85.2251 82.016 86.4991 82.7217 87.3034 83.8583C89.154 86.4661 90.3654 91.4565 89.8367 94.3265C89.5083 96.0973 87.5727 97.5245 84.0858 98.5559C83.9429 98.5982 83.8 98.6405 83.65 98.6848C83.0339 98.86 82.4249 99.0329 81.8319 99.2084C74.5653 101.358 68.8402 103.642 64.3359 106.193C64.0409 106.365 63.9812 106.561 64.0164 106.643C64.0381 106.701 64.154 106.674 64.204 106.659C64.254 106.644 64.3167 106.618 64.3778 106.586C68.1738 104.651 73.8365 102.015 79.3382 100.388C87.0621 98.1029 92.5253 97.7048 94.1007 103.186C95.8188 109.002 90.1351 112.435 84.9919 114.783C81.9933 116.09 78.8946 117.206 75.5078 118.208L75.5101 118.186Z" fill="#E50050"/>
<path d="M75.5579 75.3518C78.6303 74.443 81.8198 76.5407 82.6649 80.0226C82.8391 80.7403 82.8981 81.4564 82.8545 82.1602C84.6227 82.3779 86.018 82.9836 86.8479 84.1625C88.6265 86.6633 89.8088 91.5341 89.3011 94.2696C88.9728 96.0404 86.72 97.2338 83.9692 98.0474C83.8263 98.0897 83.6905 98.1299 83.5476 98.1721C82.9244 98.3494 82.3226 98.5202 81.7224 98.6978C74.0558 100.966 68.4381 103.282 64.0941 105.735C63.0758 106.336 63.4118 107.404 64.3263 107.134C64.4192 107.106 64.516 107.063 64.6184 107.012C68.7411 104.909 74.2516 102.403 79.4603 100.863C87.5556 98.468 92.1954 98.5271 93.5777 103.339C95.073 108.395 90.6427 111.628 84.7966 114.297C81.6385 115.673 78.5334 116.763 75.3967 117.69C72.6459 118.504 69.8644 119.191 66.9882 119.836C59.9619 121.366 55.528 120.199 53.6251 117.628C51.6851 115.125 50.7142 110.462 51.209 107.674C51.7054 104.45 53.0304 101.8 59.6324 99.8476C64.3481 98.4527 68.7838 96.9768 73.4366 95.102C74.4628 94.6916 74.0441 93.5976 73.1509 93.8618C73.1152 93.8724 73.0723 93.8851 73.0366 93.8956C68.6952 95.5074 64.4224 96.992 60.1997 98.2411C52.1544 100.621 49.6326 99.8854 48.8471 96.6493C48.0616 93.4132 51.0986 90.5919 58.2024 87.8354C60.4112 86.9969 62.5812 86.2197 64.7245 85.5216C64.7083 85.4552 64.6867 85.3975 64.6705 85.331C63.8254 81.8491 65.6374 78.2719 68.7098 77.3631C69.9744 76.9891 71.2822 77.1079 72.4532 77.6732C73.2113 76.5373 74.29 75.7125 75.5547 75.3385M75.316 74.355C74.1013 74.7143 73.004 75.4306 72.1451 76.404C70.9605 76.0351 69.6857 76.0204 68.4711 76.3797C65.0486 77.392 62.9231 81.0975 63.4649 84.8757C61.6734 85.4769 59.8343 86.1348 57.8796 86.8839C55.0384 87.9879 46.4235 91.3338 47.7912 96.9687C48.6138 100.358 51.2383 101.105 55.2883 100.47C51.7226 102.344 50.5724 104.735 50.1375 107.613C49.6303 110.477 50.5491 115.461 52.7278 118.285C55.0635 121.44 60.1792 122.355 67.1324 120.84C70.4009 120.108 73.0974 119.417 75.6267 118.669C79.0349 117.661 82.1605 116.53 85.1663 115.221C90.5371 112.77 96.4498 109.177 94.6151 102.975C93.4508 98.9036 90.1732 97.9572 86.0985 98.3648C88.626 97.3252 90.0542 95.984 90.356 94.3564C90.905 91.3808 89.6676 86.22 87.75 83.5253C86.9441 82.382 85.6571 81.6232 83.9313 81.2648C83.9088 80.7302 83.8362 80.2103 83.712 79.6987C82.7346 75.6718 78.9671 73.275 75.3089 74.3571L75.316 74.355Z" fill="black"/>
<path d="M71.8374 82.8294C71.1302 79.9199 72.5419 76.9796 74.986 76.2577C77.4301 75.5358 79.9864 77.3042 80.6936 80.2137C81.4009 83.1232 79.9892 86.0635 77.5451 86.7854C75.101 87.5073 72.5447 85.7389 71.8374 82.8294Z" fill="white"/>
<path d="M70.9323 88.5575C73.3779 87.8352 74.7875 84.8929 74.0808 81.9858C73.3742 79.0786 70.8188 77.3074 68.3732 78.0298C65.9276 78.7521 64.5179 81.6944 65.2246 84.6015C65.9313 87.5087 68.4867 89.2798 70.9323 88.5575Z" fill="white"/>
<path d="M69.8753 83.3434C69.6848 82.5595 70.215 81.7193 71.0573 81.4705C71.8995 81.2216 72.7398 81.6569 72.9303 82.4409C73.1208 83.2248 72.5905 84.065 71.7483 84.3138C70.906 84.5627 70.0658 84.1274 69.8753 83.3434Z" fill="#231916"/>
<path d="M76.4873 81.5712C76.2968 80.7873 76.8271 79.9471 77.6693 79.6982C78.5116 79.4494 79.3518 79.8847 79.5423 80.6686C79.7328 81.4526 79.2026 82.2928 78.3603 82.5416C77.518 82.7905 76.6778 82.3552 76.4873 81.5712Z" fill="#231916"/>
<path d="M87.0693 103.556C87.3301 104.612 87.0437 105.616 86.4293 105.795C85.8148 105.973 85.1037 105.259 84.8428 104.203C84.582 103.148 84.8684 102.144 85.4828 101.965C86.0973 101.787 86.8084 102.501 87.0693 103.556Z" fill="white"/>
<path d="M91.3081 105.847C91.5689 106.902 91.2825 107.906 90.6681 108.085C90.0536 108.263 89.3425 107.549 89.0816 106.493C88.8208 105.438 89.1072 104.434 89.7216 104.255C90.3361 104.077 91.0472 104.791 91.3081 105.847Z" fill="white"/>
</g>
<defs>
<clipPath id="clip0_77_4984">
<rect width="125" height="140" fill="white"/>
</clipPath>
</defs>
</svg>
