<svg width="266" height="330" viewBox="0 0 266 330" fill="none" xmlns="http://www.w3.org/2000/svg">
<path d="M116.298 22.9194L149.475 266.89C149.878 269.832 147.808 272.547 144.866 272.95C141.923 273.353 139.209 271.284 138.805 268.341C138.805 268.368 111.863 23.4972 111.85 23.4703C111.581 20.756 115.733 19.8691 116.298 22.9194Z" fill="#AAAAAA"/>
<path d="M171.956 99.3784C171.579 89.5153 163.463 86.8278 148.238 86.8278C138.429 86.8278 127.693 88.4941 119.576 90.1469C117.332 90.6709 116.956 88.0775 119.2 87.4459C128.539 85.0541 140.391 83.9119 156.556 84.0194C160.346 84.0463 168.865 85.5781 168.704 79.1013C168.529 71.9123 159.365 73.8069 150.106 73.8473C141.238 73.8876 132.826 73.5382 123.863 72.5976C121.807 72.396 122.183 69.8966 124.051 70.1116C132.355 70.7298 140.485 71.1463 148.427 71.1463C163.557 71.1463 167.669 68.3514 167.669 61.8073C167.669 55.2633 161.138 51.6352 147.499 50.3989C137.502 49.5658 127.988 49.2567 118.837 49.9824C107.536 50.8155 98.0093 52.8848 95.6847 59.4289C93.6287 65.1398 93.2659 75.1641 95.6847 79.8672C95.9265 80.3241 96.7596 81.6275 96.7596 81.6275C96.7596 81.6275 96.034 83.3475 95.7922 83.9119C93.7094 88.8837 93.454 98.2362 95.7922 104.041C98.0362 109.954 105.319 114.63 118.3 115.665C129.695 116.498 140.431 116.699 151.92 115.141C163.315 113.38 172.466 109.739 171.996 99.3649L171.956 99.3784Z" fill="#F5F5F5"/>
<path d="M151.598 38.7217C149.005 38.7217 146.68 40.2535 145.162 42.6454C143.643 40.2535 141.332 38.7217 138.725 38.7217C134.156 38.7217 130.448 43.4517 130.448 49.297C130.448 55.1422 134.156 59.8722 138.725 59.8722C141.319 59.8722 143.643 58.3403 145.162 55.9485C146.68 58.3403 148.991 59.8722 151.598 59.8722C156.167 59.8722 159.876 55.1422 159.876 49.297C159.876 43.4517 156.167 38.7217 151.598 38.7217Z" stroke="#F5F5F5" stroke-width="3.28" stroke-miterlimit="10"/>
<path d="M133.941 117.304C129.211 117.304 124.213 117.102 118.206 116.659C105.763 115.665 97.4588 111.311 94.8385 104.404C92.2854 98.0481 92.7825 88.4806 94.8385 83.5356C94.9997 83.1594 95.376 82.2726 95.6044 81.7216C95.3222 81.2782 94.9325 80.6466 94.7578 80.3241C92.1779 75.2851 92.5944 64.9517 94.7041 59.0929C97.3916 51.5545 108.357 49.7539 118.73 49.0015C121.418 48.7865 124.226 48.6655 127.263 48.6118C127.559 41.3287 132.584 35.5103 138.725 35.5103C141.063 35.5103 143.28 36.3165 145.162 37.8484C147.043 36.3165 149.26 35.5103 151.598 35.5103C157.927 35.5103 163.074 41.6915 163.074 49.2836C163.074 50.5467 162.926 51.8098 162.63 53.0461C166.621 55.1423 168.65 58.0986 168.65 61.8207C168.65 69.4532 163.356 72.1541 148.414 72.1541C141.211 72.1541 133.444 71.8182 123.971 71.1195H123.823C123.501 71.1195 123.46 71.2807 123.46 71.3345C123.46 71.5629 123.863 71.6166 123.944 71.6166C132.087 72.4632 139.935 72.8529 148.655 72.8529H150.08C151.692 72.8529 153.291 72.7723 154.837 72.7185C156.422 72.6513 157.927 72.5976 159.365 72.5976C162.657 72.5976 169.51 72.5976 169.672 79.0744C169.712 80.7676 169.228 82.1382 168.247 83.146C166.46 84.9735 163.41 85.1885 161.273 85.1885C160.252 85.1885 159.258 85.1347 158.344 85.081C157.672 85.0407 157.054 85.0138 156.516 85.0003C155.804 85.0003 155.105 85.0003 154.407 85.0003C139.612 85.0003 128.499 86.0753 119.416 88.4C118.824 88.5612 118.636 88.8972 118.663 89.0719C118.676 89.1928 118.891 89.2062 118.986 89.2062C119.08 89.2062 119.201 89.1928 119.321 89.1659C126.806 87.6341 137.865 85.82 148.212 85.82C162.738 85.82 172.493 88.1178 172.923 99.3381C173.461 111.271 162.026 114.576 152.001 116.135C146.183 116.928 140.27 117.304 133.901 117.304H133.941Z" fill="#F5F5F5"/>
<path d="M151.599 36.5181C157.377 36.5181 162.08 42.2559 162.08 49.2971C162.08 50.8021 161.851 52.2399 161.462 53.5836C165.614 55.5455 167.656 58.3001 167.656 61.8207C167.656 68.3513 163.544 71.1598 148.414 71.1598C140.472 71.1598 132.356 70.7432 124.038 70.1251C123.958 70.1251 123.891 70.1251 123.823 70.1251C122.144 70.1251 121.875 72.4229 123.85 72.6244C132.329 73.5113 140.311 73.8741 148.669 73.8741C149.139 73.8741 149.623 73.8741 150.094 73.8741C153.332 73.8607 156.544 73.6188 159.379 73.6188C164.66 73.6188 168.57 74.4519 168.691 79.1282C168.798 83.4953 164.955 84.221 161.287 84.221C159.513 84.221 157.78 84.0463 156.544 84.0463C155.831 84.0463 155.119 84.0463 154.42 84.0463C139.344 84.0463 128.11 85.2019 119.187 87.4728C117.145 88.0372 117.279 90.2409 118.999 90.2409C119.174 90.2409 119.362 90.214 119.564 90.1737C127.693 88.5075 138.43 86.8547 148.226 86.8547C163.45 86.8547 171.567 89.5556 171.943 99.4052C172.413 109.779 163.262 113.407 151.867 115.181C145.74 116.014 139.827 116.336 133.928 116.336C128.755 116.336 123.581 116.081 118.26 115.691C105.28 114.657 97.9966 109.981 95.7526 104.068C93.4144 98.2631 93.6698 88.9106 95.7526 83.9388C95.9944 83.361 96.7201 81.6544 96.7201 81.6544C96.7201 81.6544 95.8735 80.351 95.6451 79.8941C93.2263 75.191 93.5891 65.1667 95.6451 59.4558C97.9832 52.9252 107.51 50.8424 118.798 50.0093C121.902 49.7674 125.06 49.6464 128.244 49.6196C128.244 49.5121 128.244 49.418 128.244 49.3105C128.244 42.2693 132.947 36.5315 138.725 36.5315C141.104 36.5315 143.348 37.4856 145.162 39.2055C146.976 37.4856 149.22 36.5315 151.599 36.5315M151.599 34.5428C149.314 34.5428 147.084 35.2818 145.162 36.639C143.24 35.2818 141.01 34.5428 138.725 34.5428C132.329 34.5428 127.035 40.294 126.336 47.6577C123.622 47.7115 121.096 47.8324 118.65 48.0339C107.981 48.8133 96.6663 50.708 93.7773 58.7839C91.6004 64.8307 91.1838 75.5404 93.8848 80.7944C94.0191 81.0497 94.261 81.4528 94.4894 81.8291C94.2744 82.3263 94.046 82.8772 93.9251 83.1594C91.7751 88.2791 91.2645 98.1959 93.9251 104.794C96.6797 112.05 105.266 116.632 118.112 117.653C124.159 118.097 129.185 118.298 133.942 118.298C140.351 118.298 146.318 117.909 152.149 117.116C162.617 115.49 174.523 112.01 173.945 99.2843C173.649 91.5175 168.987 87.8356 162.416 86.156C164.593 86.0619 167.24 85.6185 168.973 83.8447C170.156 82.6353 170.733 81.0228 170.68 79.0475C170.532 73.2694 165.815 71.966 162.147 71.6838C166.931 70.1789 169.632 67.236 169.632 61.8073C169.632 57.897 167.656 54.7795 163.746 52.522C163.948 51.4471 164.055 50.3586 164.055 49.2702C164.055 41.1271 158.465 34.5024 151.585 34.5024L151.599 34.5428Z" fill="#AAAAAA"/>
<path d="M143.321 49.2835C143.321 43.4382 147.03 38.7083 151.598 38.7083C156.167 38.7083 159.876 43.4382 159.876 49.2835C159.876 55.1288 156.167 59.8588 151.598 59.8588C147.03 59.8588 143.321 55.1288 143.321 49.2835Z" fill="white"/>
<path d="M138.725 59.8588C143.297 59.8588 147.003 55.1241 147.003 49.2835C147.003 43.443 143.297 38.7083 138.725 38.7083C134.154 38.7083 130.448 43.443 130.448 49.2835C130.448 55.1241 134.154 59.8588 138.725 59.8588Z" fill="white"/>
<path d="M139.222 49.4044C139.222 47.8188 140.512 46.5288 142.098 46.5288C143.683 46.5288 144.973 47.8188 144.973 49.4044C144.973 50.99 143.683 52.28 142.098 52.28C140.512 52.28 139.222 50.99 139.222 49.4044Z" fill="#666666"/>
<path d="M152.095 49.4044C152.095 47.8188 153.385 46.5288 154.971 46.5288C156.556 46.5288 157.846 47.8188 157.846 49.4044C157.846 50.99 156.556 52.28 154.971 52.28C153.385 52.28 152.095 50.99 152.095 49.4044Z" fill="#666666"/>
<path d="M103.251 66.2281C104.393 66.2281 105.32 64.5256 105.32 62.4253C105.32 60.3251 104.393 58.6226 103.251 58.6226C102.108 58.6226 101.181 60.3251 101.181 62.4253C101.181 64.5256 102.108 66.2281 103.251 66.2281Z" fill="#AAAAAA"/>
<path d="M111.904 68.6602C111.904 70.7565 110.977 72.463 109.835 72.463C108.692 72.463 107.765 70.7565 107.765 68.6602C107.765 66.564 108.692 64.8574 109.835 64.8574C110.977 64.8574 111.904 66.564 111.904 68.6602Z" fill="#AAAAAA"/>
<path d="M133.123 177.208C107.807 177.208 94.9607 169.293 94.9607 153.693C94.9607 146.154 97.5138 140.604 102.768 136.761C95.8476 134.571 94.3022 129.787 94.3022 125.985C94.3022 118.876 97.8632 114.119 103.373 113.891C104.058 113.837 104.757 113.81 105.442 113.81C108.613 113.81 111.529 114.375 114.257 115.53C113.491 113.622 113.289 111.499 113.451 109.712C113.854 103.235 121.217 99.3516 133.123 99.3516C145.029 99.3516 152.097 103.222 152.607 109.712C152.728 111.795 152.365 113.81 151.613 115.544C154.394 114.388 157.404 113.81 160.616 113.81C161.301 113.81 162 113.837 162.699 113.891C168.222 114.254 171.648 118.688 171.648 125.46C171.648 130.93 168.625 134.867 163.075 136.721C168.396 140.551 170.99 146.114 170.99 153.679C170.99 169.28 158.251 177.195 133.11 177.195L133.123 177.208ZM127.546 143.211C127.439 143.211 127.237 143.346 127.13 143.588C127.022 143.816 126.969 144.192 127.358 144.649C130.771 148.331 134.776 150.709 138.915 151.475C138.941 151.475 138.995 151.475 139.035 151.475C139.492 151.475 139.68 151.072 139.721 150.844C139.748 150.709 139.748 150.535 139.613 150.481C134.897 148.909 131.175 146.665 127.573 143.198H127.533L127.546 143.211Z" fill="#F5F5F5"/>
<path d="M133.122 100.373C144.047 100.373 151.142 103.907 151.612 109.819C151.8 113.138 150.685 116.672 148.065 118.634C151.747 116.095 155.993 114.818 160.629 114.818C161.287 114.818 161.959 114.845 162.631 114.899C167.294 115.208 170.666 118.836 170.666 125.487C170.666 130.889 167.401 134.934 160.669 136.385C167.858 140.537 170.008 146.866 170.008 153.719C170.008 165.759 161.784 176.241 133.122 176.241C104.46 176.241 95.9543 165.759 95.9543 153.719C95.9543 146.866 98.1043 140.537 105.199 136.385C98.5746 135.041 95.2959 131.507 95.2959 126.011C95.2959 119.373 98.5612 115.114 103.426 114.912C104.111 114.858 104.796 114.831 105.455 114.831C110.09 114.831 114.135 116.108 117.804 118.648C115.183 116.78 114.162 113.152 114.444 109.833C114.82 103.92 121.821 100.386 133.122 100.386M139.035 152.497C140.768 152.497 141.359 150.051 139.935 149.567C135.272 148.008 131.711 145.832 128.258 142.513C128.029 142.324 127.788 142.23 127.532 142.23C126.43 142.23 125.355 143.87 126.578 145.308C130.032 149.043 134.238 151.637 138.712 152.47C138.82 152.483 138.927 152.497 139.021 152.497M133.109 98.3974C120.612 98.3974 112.899 102.63 112.442 109.698C112.321 111.163 112.415 112.587 112.711 113.931C110.426 113.205 108.008 112.843 105.441 112.843C104.729 112.843 104.003 112.87 103.264 112.923C97.3249 113.179 93.3071 118.433 93.3071 126.011C93.3071 129.828 94.7046 134.544 100.751 137.111C96.1827 141.061 93.9521 146.53 93.9521 153.706C93.9521 160.882 96.8143 166.969 102.458 171.081C108.948 175.811 119.255 178.202 133.109 178.202C165.238 178.202 171.983 164.872 171.983 153.693C171.983 146.463 169.712 140.981 165.05 137.017C169.927 134.799 172.642 130.741 172.642 125.474C172.642 118.124 168.852 113.313 162.752 112.91C162.053 112.856 161.314 112.829 160.615 112.829C158.022 112.829 155.549 113.192 153.225 113.918C153.547 112.587 153.682 111.163 153.601 109.698C153.037 102.59 145.391 98.384 133.122 98.384L133.109 98.3974Z" fill="#AAAAAA"/>
<path d="M126.418 133.98C130.989 133.98 134.695 129.245 134.695 123.404C134.695 117.564 130.989 112.829 126.418 112.829C121.846 112.829 118.14 117.564 118.14 123.404C118.14 129.245 121.846 133.98 126.418 133.98Z" fill="white"/>
<path d="M129.293 127.301C129.293 125.716 128.003 124.426 126.417 124.426C124.831 124.426 123.542 125.716 123.542 127.301C123.542 128.887 124.831 130.177 126.417 130.177C128.003 130.177 129.293 128.887 129.293 127.301Z" fill="#666666"/>
<path d="M147.568 123.404C147.568 117.559 143.859 112.829 139.29 112.829C134.721 112.829 131.013 117.559 131.013 123.404C131.013 129.25 134.721 133.98 139.29 133.98C143.859 133.98 147.568 129.25 147.568 123.404Z" fill="white"/>
<path d="M142.166 127.301C142.166 125.716 140.876 124.426 139.29 124.426C137.705 124.426 136.415 125.716 136.415 127.301C136.415 128.887 137.705 130.177 139.29 130.177C140.876 130.177 142.166 128.887 142.166 127.301Z" fill="#666666"/>
<path d="M104.662 159C105.805 159 106.732 157.298 106.732 155.197C106.732 153.097 105.805 151.395 104.662 151.395C103.519 151.395 102.593 153.097 102.593 155.197C102.593 157.298 103.519 159 104.662 159Z" fill="#AAAAAA"/>
<path d="M113.316 161.433C113.316 163.529 112.389 165.235 111.247 165.235C110.104 165.235 109.177 163.529 109.177 161.433C109.177 159.336 110.104 157.63 111.247 157.63C112.389 157.63 113.316 159.336 113.316 161.433Z" fill="#AAAAAA"/>
<path d="M95.6986 205.158C97.9426 199.353 101.396 195.093 113.812 195.093C122.681 195.093 131.093 194.784 140.056 193.844C142.111 193.642 141.735 191.143 139.867 191.358C131.563 191.976 123.433 192.392 115.492 192.392C100.361 192.392 96.2495 189.597 96.2495 183.053C96.2495 176.509 102.78 172.881 116.419 171.645C126.417 170.812 135.93 170.503 145.081 171.228C156.382 172.062 165.909 174.131 168.234 180.675C170.29 186.386 170.29 196.236 168.234 201.113C166.836 204.432 161.972 205.373 156.463 205.265C140.311 205.064 128.446 206.3 119.107 208.692C116.863 209.31 117.239 211.904 119.483 211.393C127.612 209.727 138.349 208.074 148.145 208.074C163.369 208.074 171.486 210.775 171.862 220.624C172.332 230.998 163.181 234.626 151.786 236.4C140.297 237.959 129.561 237.744 118.166 236.924C105.185 235.889 97.9023 231.213 95.6583 225.301C93.3201 219.496 93.6023 210.157 95.6583 205.171L95.6986 205.158Z" fill="#F5F5F5"/>
<path d="M133.874 238.55C129.144 238.55 124.145 238.348 118.139 237.905C105.682 236.911 97.3915 232.557 94.7712 225.65C92.2315 219.348 92.7287 209.767 94.7712 204.795C97.3109 198.211 101.382 194.112 113.812 194.112C123.662 194.112 131.724 193.736 139.948 192.876C140.042 192.876 140.458 192.809 140.445 192.594C140.445 192.54 140.405 192.366 140.082 192.366H139.934C130.461 193.091 122.694 193.414 115.492 193.414C100.549 193.414 95.2684 190.713 95.2684 183.08C95.2684 176.026 102.162 171.968 116.338 170.678C120.423 170.342 124.199 170.113 127.868 169.979C128.123 162.655 133.162 156.783 139.33 156.783C141.668 156.783 143.872 157.589 145.766 159.121C147.648 157.589 149.865 156.783 152.203 156.783C158.532 156.783 163.678 162.964 163.678 170.557C163.678 171.766 163.544 172.962 163.275 174.158C166.339 175.73 168.274 177.772 169.201 180.366C171.351 186.319 171.338 196.41 169.174 201.53C167.844 204.688 163.84 206.3 157.282 206.3C157.013 206.3 156.745 206.3 156.462 206.3C155.307 206.287 154.165 206.273 153.049 206.273C139.383 206.273 128.365 207.389 119.375 209.686C118.784 209.848 118.596 210.184 118.623 210.358C118.636 210.479 118.851 210.493 118.945 210.493C119.039 210.493 119.16 210.479 119.281 210.452C126.766 208.92 137.825 207.106 148.172 207.106C162.697 207.106 172.453 209.404 172.883 220.624C173.421 232.557 161.985 235.863 151.961 237.421C146.143 238.214 140.23 238.59 133.861 238.59L133.874 238.55Z" fill="#F5F5F5"/>
<path d="M152.19 157.764C157.968 157.764 162.671 163.502 162.671 170.543C162.671 171.994 162.469 173.378 162.093 174.682C165.103 176.079 167.293 178.001 168.247 180.688C170.303 186.399 170.303 196.249 168.247 201.126C166.917 204.284 162.456 205.279 157.282 205.279C157.014 205.279 156.758 205.279 156.49 205.279C155.321 205.265 154.192 205.252 153.063 205.252C138.645 205.252 127.801 206.488 119.134 208.692C117.091 209.256 117.225 211.46 118.945 211.46C119.12 211.46 119.308 211.433 119.51 211.393C127.639 209.726 138.376 208.074 148.172 208.074C163.396 208.074 171.513 210.775 171.889 220.624C172.359 230.998 163.208 234.626 151.813 236.4C145.686 237.233 139.773 237.555 133.874 237.555C128.701 237.555 123.528 237.3 118.206 236.91C105.226 235.876 97.9427 231.2 95.6987 225.287C93.3606 219.482 93.6427 210.143 95.6987 205.158C97.9427 199.353 101.396 195.093 113.812 195.093C122.681 195.093 131.093 194.784 140.056 193.843C142.031 193.642 141.762 191.344 140.083 191.344C140.015 191.344 139.935 191.344 139.868 191.344C131.563 191.962 123.434 192.379 115.492 192.379C100.361 192.379 96.2496 189.584 96.2496 183.04C96.2496 176.496 102.78 172.868 116.419 171.631C120.652 171.282 124.791 171.027 128.849 170.906C128.849 170.771 128.835 170.65 128.835 170.516C128.835 163.475 133.538 157.737 139.317 157.737C141.695 157.737 143.939 158.691 145.753 160.411C147.567 158.691 149.811 157.737 152.19 157.737M152.19 155.748C149.905 155.748 147.675 156.487 145.753 157.845C143.832 156.487 141.601 155.748 139.317 155.748C132.88 155.748 127.572 161.553 126.914 168.984C123.514 169.119 120.007 169.334 116.258 169.656C110.802 170.153 94.2609 171.658 94.2609 183.053C94.2609 189.906 98.5474 192.782 105.925 193.843C98.8699 195.389 95.8331 199.259 93.8443 204.446C91.7346 209.565 91.224 219.482 93.8443 226.026C96.599 233.282 105.186 237.864 118.032 238.886C124.079 239.329 129.104 239.531 133.861 239.531C140.271 239.531 146.237 239.141 152.069 238.348C162.536 236.722 174.442 233.242 173.864 220.517C173.555 212.186 168.207 208.571 160.884 207.066C165.761 206.515 168.839 204.781 170.061 201.879C172.292 196.571 172.319 186.144 170.102 179.989C169.175 177.383 167.24 175.233 164.364 173.593C164.552 172.572 164.646 171.551 164.646 170.516C164.646 162.373 159.056 155.748 152.176 155.748H152.19Z" fill="#AAAAAA"/>
<path d="M143.912 170.529C143.912 164.684 147.621 159.954 152.19 159.954C156.758 159.954 160.467 164.684 160.467 170.529C160.467 176.374 156.758 181.104 152.19 181.104C147.621 181.104 143.912 176.374 143.912 170.529Z" fill="white"/>
<path d="M139.317 181.104C143.888 181.104 147.594 176.37 147.594 170.529C147.594 164.689 143.888 159.954 139.317 159.954C134.745 159.954 131.039 164.689 131.039 170.529C131.039 176.37 134.745 181.104 139.317 181.104Z" fill="white"/>
<path d="M139.814 170.651C139.814 169.065 141.104 167.775 142.69 167.775C144.275 167.775 145.565 169.065 145.565 170.651C145.565 172.236 144.275 173.526 142.69 173.526C141.104 173.526 139.814 172.236 139.814 170.651Z" fill="#666666"/>
<path d="M152.687 170.651C152.687 169.065 153.977 167.775 155.563 167.775C157.148 167.775 158.438 169.065 158.438 170.651C158.438 172.236 157.148 173.526 155.563 173.526C153.977 173.526 152.687 172.236 152.687 170.651Z" fill="#666666"/>
<path d="M160.991 215.854C160.991 217.95 160.064 219.657 158.921 219.657C157.779 219.657 156.852 217.95 156.852 215.854C156.852 213.758 157.779 212.051 158.921 212.051C160.064 212.051 160.991 213.758 160.991 215.854Z" fill="#AAAAAA"/>
<path d="M165.479 225.878C166.622 225.878 167.548 224.176 167.548 222.075C167.548 219.975 166.622 218.273 165.479 218.273C164.336 218.273 163.41 219.975 163.41 222.075C163.41 224.176 164.336 225.878 165.479 225.878Z" fill="#AAAAAA"/>
<path d="M77.9082 291.04H79.6522V304.832H77.9082V291.04ZM68.1322 296.272C68.1322 293.904 69.7482 292.224 72.0202 292.224C74.2922 292.224 75.8922 293.904 75.8922 296.272C75.8922 298.624 74.2922 300.288 72.0202 300.288C69.7482 300.288 68.1322 298.624 68.1322 296.272ZM69.8442 296.272C69.8442 297.792 70.7242 298.816 72.0202 298.816C73.3162 298.816 74.1802 297.792 74.1802 296.272C74.1802 294.736 73.3162 293.712 72.0202 293.712C70.7242 293.712 69.8442 294.736 69.8442 296.272ZM82.4898 292.304H89.0978V301.056H82.4898V292.304ZM84.2018 299.68H87.4018V293.68H84.2018V299.68ZM91.6738 304.832V291.04H93.4178V304.832H91.6738ZM105.519 291.056H107.263V304.8H105.519V291.056ZM95.5994 300.48L98.2234 296.608C98.8634 295.68 98.9754 295.312 98.9754 294.624V293.696H96.1434V292.288H103.503V293.696H100.671V294.624C100.671 295.312 100.783 295.68 101.423 296.608L104.047 300.48L102.703 301.376L100.111 297.504C99.9994 297.36 99.9034 297.216 99.8234 297.072C99.7434 297.216 99.6474 297.36 99.5354 297.504L96.9434 301.376L95.5994 300.48ZM112.893 299.264V297.872H125.789V299.264H120.365V301.856H118.605V299.264H112.893ZM114.253 295.616L117.741 294C118.365 293.712 118.477 293.376 118.493 293.072H114.637V291.664H124.013V293.072H120.173C120.189 293.376 120.301 293.712 120.925 294L124.397 295.616L123.757 296.992L120.285 295.376C119.869 295.184 119.565 294.96 119.341 294.72C119.101 294.96 118.797 295.184 118.381 295.376L114.893 296.992L114.253 295.616ZM114.829 305.024V300.56H116.573V303.616H123.949V305.024H114.829ZM136.658 291.04H138.402V304.832H136.658V291.04ZM127.506 301.152V292.112H129.234V295.408H132.562V292.112H134.29V301.152H127.506ZM129.234 299.744H132.562V296.768H129.234V299.744ZM146.888 305.744C144.664 305.744 143.112 304.448 143.112 302.72C143.112 301.168 144.264 300.064 145.992 299.776V298.704H140.44V297.328H153.288V298.704H147.736V299.776C149.496 300.048 150.664 301.152 150.664 302.72C150.664 304.448 149.112 305.744 146.888 305.744ZM141.784 295.392L145.272 293.776C145.88 293.488 146.008 293.2 146.024 292.912H142.168V291.504H151.544V292.912H147.704C147.72 293.2 147.848 293.488 148.456 293.776L151.928 295.392L151.288 296.768L147.816 295.152C147.4 294.96 147.096 294.736 146.872 294.496C146.632 294.736 146.328 294.96 145.912 295.152L142.424 296.768L141.784 295.392ZM144.824 302.72C144.824 303.632 145.656 304.352 146.888 304.352C148.12 304.352 148.952 303.632 148.952 302.72C148.952 301.824 148.12 301.104 146.888 301.104C145.656 301.104 144.824 301.824 144.824 302.72ZM164.205 291.056H165.949V298.688H164.205V291.056ZM154.573 294.864C154.573 292.8 156.077 291.344 158.253 291.344C160.397 291.344 161.917 292.8 161.917 294.864C161.917 296.928 160.397 298.384 158.253 298.384C156.077 298.384 154.573 296.928 154.573 294.864ZM156.269 294.864C156.269 296.112 157.069 296.96 158.253 296.96C159.421 296.96 160.221 296.112 160.221 294.864C160.221 293.616 159.421 292.768 158.253 292.768C157.069 292.768 156.269 293.616 156.269 294.864ZM157.085 305.12V299.36H158.813V300.832H164.221V299.36H165.949V305.12H157.085ZM158.813 303.728H164.221V302.192H158.813V303.728ZM178.035 291.056H179.747V304.8H178.035V291.056ZM168.867 301.04V292.32H170.595V299.616H176.147V301.04H168.867ZM191.065 291.04H192.809V296.448H194.969V297.888H192.809V304.832H191.065V291.04ZM182.297 301.136V292.368H188.921V293.792H184.025V299.712H189.561V301.136H182.297ZM196.91 302.4C197.486 302.4 197.902 302.8 197.902 303.376C197.902 303.968 197.486 304.384 196.91 304.384C196.334 304.384 195.918 303.968 195.918 303.376C195.918 302.8 196.334 302.4 196.91 302.4Z" fill="#AAAAAA"/>
</svg>
