<svg width="180" height="110" viewBox="0 0 180 110" fill="none" xmlns="http://www.w3.org/2000/svg">
<g clip-path="url(#clip0_195_1301)">
<path fill-rule="evenodd" clip-rule="evenodd" d="M42.0792 2.92242C56.7108 -0.956607 71.2681 3.00117 79.8853 12.0025C83.0822 15.3419 89.2434 16.12 92.8707 13.254C97.6077 9.51136 103.334 6.58897 109.773 4.88201C131.321 -0.830641 152.685 9.23285 157.49 27.3594C158.759 32.1447 158.747 37.0135 157.645 41.6933C157.574 41.9962 157.576 42.3133 157.651 42.6153V42.6153C157.817 43.2835 158.321 43.8166 158.979 44.0196C168.751 47.0351 176.428 54.0306 178.952 63.5476C183.165 79.4394 171.41 96.3439 152.698 101.305C142.003 104.14 131.35 102.461 123.398 97.5343C120.311 95.622 116.072 95.8944 113.367 98.3166C108.836 102.373 103.114 105.531 96.5638 107.268C85.6668 110.156 74.8107 108.492 66.6459 103.54C64.6328 102.318 62.1384 102.063 59.9693 102.979C57.804 103.893 55.5382 104.67 53.1834 105.294C29.9342 111.458 6.81778 100.351 1.55138 80.4864C-1.88891 67.5097 3.13919 54.0057 13.521 44.4829C13.7725 44.2521 13.8743 43.8994 13.7868 43.5695V43.5695C9.2523 26.4654 21.9192 8.26707 42.0792 2.92242Z" fill="white"/>
<path d="M84.0988 51.2572C83.9211 46.584 80.0692 45.3033 72.8566 45.3033C68.2103 45.3033 63.1197 46.0927 59.2678 46.8767C58.2068 47.1224 58.0291 45.894 59.0901 45.5961C63.5169 44.467 69.1354 43.9181 76.7922 43.9704C78.5901 43.9808 82.6249 44.7127 82.5465 41.639C82.4629 38.2308 78.1197 39.1247 73.7295 39.1456C69.5221 39.1665 65.5395 38.9992 61.2904 38.5549C60.3183 38.4556 60.496 37.2742 61.3793 37.3736C65.32 37.6663 69.1667 37.8649 72.9298 37.8649C80.1005 37.8649 82.05 36.5372 82.05 33.4374C82.05 30.3377 78.9507 28.6179 72.4908 28.0272C67.7556 27.6352 63.2399 27.4836 58.9019 27.8286C53.5448 28.2206 49.0291 29.2033 47.9263 32.3031C46.9542 35.0108 46.7817 39.7624 47.9263 41.9945C48.0361 42.214 48.4385 42.8308 48.4385 42.8308C48.4385 42.8308 48.0936 43.6411 47.9786 43.9129C46.9908 46.2704 46.8706 50.7031 47.9786 53.4579C49.0396 56.2597 52.4943 58.4761 58.6458 58.9674C64.0448 59.3595 69.1354 59.4588 74.5814 58.7217C79.9803 57.8854 84.3183 56.1656 84.0988 51.2468V51.2572Z" fill="#E50050"/>
<path d="M74.4507 22.4968C73.2172 22.4968 72.1197 23.2234 71.3984 24.3577C70.6772 23.2234 69.5796 22.4968 68.3461 22.4968C66.1824 22.4968 64.4263 24.7393 64.4263 27.5097C64.4263 30.2802 66.1824 32.5227 68.3461 32.5227C69.5796 32.5227 70.6772 31.7961 71.3984 30.6618C72.1197 31.7961 73.2172 32.5227 74.4507 32.5227C76.6144 32.5227 78.3705 30.2802 78.3705 27.5097C78.3705 24.7393 76.6144 22.4968 74.4507 22.4968Z" stroke="#E50050" stroke-width="4" stroke-miterlimit="10"/>
<path d="M66.0779 59.7515C63.8357 59.7515 61.4629 59.6574 58.6145 59.4483C52.7138 58.9779 48.7835 56.9131 47.5396 53.6356C46.3323 50.6247 46.5675 46.0874 47.5448 43.7456C47.618 43.5679 47.7957 43.1497 47.9107 42.8883C47.78 42.6792 47.5918 42.3761 47.5134 42.2245C46.2852 39.8356 46.4891 34.9377 47.4873 32.162C48.7626 28.5865 53.9577 27.7345 58.8706 27.3738C60.1406 27.2745 61.4682 27.2117 62.9159 27.1908C63.057 23.7408 65.4403 20.9808 68.3462 20.9808C69.4542 20.9808 70.4995 21.3624 71.3985 22.089C72.2922 21.3624 73.3375 20.9808 74.4507 20.9808C77.4507 20.9808 79.8863 23.9081 79.8863 27.5097C79.8863 28.1056 79.8131 28.7068 79.6772 29.2922C81.5692 30.2854 82.5309 31.6863 82.5309 33.4479C82.5309 37.0652 80.0222 38.3458 72.9403 38.3458C69.5274 38.3458 65.8427 38.189 61.3532 37.8545H61.2852C61.1337 37.8545 61.1127 37.9329 61.1127 37.959C61.1075 38.0636 61.3061 38.0897 61.3427 38.0949C65.2051 38.4974 68.9263 38.6856 73.0605 38.6856H73.7295C74.4873 38.6804 75.2504 38.649 75.9873 38.6229C76.7399 38.5915 77.456 38.5654 78.1354 38.5654C79.6981 38.5654 82.9438 38.5654 83.0222 41.639C83.0431 42.4388 82.8131 43.0922 82.3479 43.5679C81.5012 44.4356 80.0587 44.5349 79.0396 44.5349C78.5535 44.5349 78.0779 44.5088 77.6546 44.4879C77.3358 44.4722 77.0378 44.4565 76.7922 44.4513C76.4525 44.4513 76.118 44.4513 75.7887 44.4513C68.78 44.4513 63.5117 44.9636 59.2103 46.0613C58.9281 46.1397 58.8392 46.2965 58.8497 46.3802C58.8549 46.4377 58.9594 46.4429 59.0013 46.4429C59.0483 46.4429 59.1006 46.4377 59.158 46.422C62.7068 45.6954 67.949 44.8381 72.8514 44.8381C79.7347 44.8381 84.3654 45.9254 84.564 51.2415C84.8201 56.8974 79.4002 58.4656 74.6493 59.2027C71.895 59.5738 69.0936 59.7568 66.0727 59.7568L66.0779 59.7515Z" fill="#E50050"/>
<path d="M74.4507 21.4565C77.1894 21.4565 79.4159 24.1747 79.4159 27.5149C79.4159 28.2311 79.3113 28.9106 79.1232 29.5484C81.0936 30.4788 82.0605 31.7856 82.0605 33.4531C82.0605 36.5529 80.111 37.8806 72.9402 37.8806C69.1772 37.8806 65.3253 37.682 61.3897 37.3893C61.3531 37.3893 61.3218 37.384 61.2852 37.384C60.4908 37.384 60.3653 38.4765 61.3009 38.5706C65.3253 38.9888 69.104 39.1613 73.0657 39.1613C73.2904 39.1613 73.5152 39.1613 73.7399 39.1613C75.2713 39.1561 76.7974 39.0411 78.1406 39.0411C80.6389 39.0411 82.4995 39.4384 82.557 41.6547C82.6092 43.7247 80.7904 44.0697 79.05 44.0697C78.2085 44.0697 77.388 43.9913 76.8026 43.9861C76.4629 43.9861 76.1284 43.9861 75.7939 43.9861C68.6493 43.9861 63.3235 44.5297 59.0953 45.6117C58.1284 45.8783 58.1859 46.9238 59.0064 46.9238C59.0848 46.9238 59.1737 46.9133 59.273 46.8924C63.1249 46.1031 68.2155 45.319 72.8618 45.319C80.0744 45.319 83.9263 46.5997 84.104 51.2729C84.3235 56.1918 79.9855 57.9115 74.5866 58.7479C71.6859 59.1399 68.8845 59.2968 66.0831 59.2968C63.6319 59.2968 61.1754 59.1765 58.6563 58.9936C52.5047 58.5022 49.05 56.2859 47.989 53.484C46.881 50.7293 47.0012 46.2965 47.989 43.939C48.104 43.6672 48.449 42.857 48.449 42.857C48.449 42.857 48.0517 42.2402 47.9368 42.0206C46.7922 39.7886 46.9646 35.037 47.9368 32.3293C49.0448 29.2295 53.5605 28.2468 58.9124 27.8547C60.3862 27.7397 61.8758 27.6822 63.3915 27.6665C63.3915 27.6195 63.3862 27.5672 63.3862 27.5202C63.3862 24.1799 65.6127 21.4618 68.3514 21.4618C69.4803 21.4618 70.5413 21.9113 71.4037 22.7268C72.2608 21.9113 73.327 21.4618 74.4559 21.4618M74.4559 20.5208C73.374 20.5208 72.3183 20.8711 71.4037 21.514C70.4942 20.8711 69.4333 20.5208 68.3514 20.5208C65.3148 20.5208 62.8113 23.2443 62.4768 26.7361C61.1911 26.7622 59.9943 26.8197 58.834 26.9138C53.7747 27.2849 48.4124 28.184 47.043 32.0104C46.0134 34.8802 45.8148 39.9506 47.0901 42.4493C47.1528 42.5695 47.2678 42.7629 47.3775 42.9406C47.2782 43.1758 47.1632 43.4424 47.111 43.5731C46.097 46.0038 45.8514 50.7031 47.111 53.829C48.4124 57.2686 52.489 59.4379 58.5779 59.924C61.4472 60.1331 63.8305 60.2324 66.0831 60.2324C69.1249 60.2324 71.9472 60.0495 74.7172 59.6731C79.6772 58.9047 85.3218 57.2529 85.05 51.2206C84.9089 47.5354 82.6981 45.7947 79.5883 45.0002C80.6232 44.9531 81.8775 44.744 82.6981 43.9024C83.2573 43.3274 83.5291 42.5643 83.5082 41.6286C83.4402 38.8895 81.2033 38.2727 79.4681 38.1368C81.7364 37.4206 83.0169 36.0302 83.0169 33.4531C83.0169 31.5974 82.0814 30.1233 80.226 29.0518C80.3253 28.5447 80.3723 28.0272 80.3723 27.5149C80.3723 23.6572 77.7225 20.5156 74.4611 20.5156L74.4559 20.5208Z" fill="black"/>
<path d="M74.4507 32.5227C76.6156 32.5227 78.3705 30.2783 78.3705 27.5097C78.3705 24.7411 76.6156 22.4968 74.4507 22.4968C72.2858 22.4968 70.5308 24.7411 70.5308 27.5097C70.5308 30.2783 72.2858 32.5227 74.4507 32.5227Z" fill="white"/>
<path d="M68.3461 32.5227C70.511 32.5227 72.266 30.2783 72.266 27.5097C72.266 24.7411 70.511 22.4968 68.3461 22.4968C66.1813 22.4968 64.4263 24.7411 64.4263 27.5097C64.4263 30.2783 66.1813 32.5227 68.3461 32.5227Z" fill="white"/>
<path d="M69.9454 28.9315C70.6988 28.9315 71.3095 28.3207 71.3095 27.5672C71.3095 26.8137 70.6988 26.2029 69.9454 26.2029C69.192 26.2029 68.5813 26.8137 68.5813 27.5672C68.5813 28.3207 69.192 28.9315 69.9454 28.9315Z" fill="#231916"/>
<path d="M76.0448 28.9315C76.7981 28.9315 77.4089 28.3207 77.4089 27.5672C77.4089 26.8137 76.7981 26.2029 76.0448 26.2029C75.2914 26.2029 74.6807 26.8137 74.6807 27.5672C74.6807 28.3207 75.2914 28.9315 76.0448 28.9315Z" fill="#231916"/>
<path d="M51.5326 35.544C52.0752 35.544 52.5152 34.7366 52.5152 33.7406C52.5152 32.7446 52.0752 31.9372 51.5326 31.9372C50.9899 31.9372 50.55 32.7446 50.55 33.7406C50.55 34.7366 50.9899 35.544 51.5326 35.544Z" fill="white"/>
<path d="M55.6354 36.694C55.6354 37.6924 55.1964 38.4974 54.6528 38.4974C54.1093 38.4974 53.6702 37.6872 53.6702 36.694C53.6702 35.7008 54.1093 34.8906 54.6528 34.8906C55.1964 34.8906 55.6354 35.7008 55.6354 36.694Z" fill="white"/>
<path d="M97.5623 59.3385C85.5623 59.3385 79.4734 55.5906 79.4734 48.194C79.4734 44.6238 80.686 41.984 83.1738 40.1701C79.8915 39.1351 79.165 36.8665 79.165 35.0631C79.165 31.6915 80.8532 29.4385 83.4664 29.3288C83.7853 29.3026 84.125 29.2922 84.449 29.2922C85.949 29.2922 87.334 29.5588 88.625 30.1076C88.2643 29.1981 88.1703 28.1997 88.2382 27.3529C88.4316 24.2844 91.9177 22.4445 97.5623 22.4445C103.207 22.4445 106.552 24.2792 106.797 27.3529C106.855 28.3408 106.682 29.2974 106.327 30.1181C107.644 29.5692 109.071 29.2922 110.597 29.2922C110.921 29.2922 111.256 29.3026 111.585 29.3288C114.198 29.5013 115.829 31.6079 115.829 34.8174C115.829 37.4101 114.397 39.2763 111.763 40.1597C114.287 41.9735 115.515 44.6133 115.515 48.1992C115.515 55.5958 109.473 59.3438 97.5623 59.3438V59.3385ZM94.9177 43.2229C94.8706 43.2229 94.7713 43.2856 94.719 43.4006C94.6668 43.5104 94.6459 43.6881 94.8288 43.9076C96.4438 45.6535 98.3462 46.7774 100.306 47.1433C100.322 47.1433 100.369 47.1433 100.369 47.1433C100.588 47.1433 100.677 46.9551 100.698 46.8401C100.709 46.7774 100.709 46.6938 100.646 46.6729C98.4089 45.9254 96.6476 44.8642 94.9386 43.2229H94.9229H94.9177Z" fill="#E50050"/>
<path d="M97.5622 22.9097C102.742 22.9097 106.102 24.5824 106.327 27.3842C106.416 28.9577 105.883 30.6304 104.644 31.5661C106.385 30.3586 108.402 29.7574 110.597 29.7574C110.911 29.7574 111.229 29.7679 111.548 29.794C113.759 29.9404 115.353 31.6654 115.353 34.8122C115.353 37.3683 113.806 39.2867 110.618 39.9767C114.026 41.9422 115.045 44.9427 115.045 48.1888C115.045 53.897 111.151 58.8629 97.5622 58.8629C83.9734 58.8629 79.9438 53.897 79.9438 48.1888C79.9438 44.9427 80.9629 41.9422 84.3235 39.9767C81.1824 39.339 79.6302 37.6663 79.6302 35.0579C79.6302 31.9111 81.1772 29.8933 83.4821 29.794C83.8061 29.7679 84.1302 29.7574 84.4438 29.7574C86.6441 29.7574 88.557 30.3586 90.2974 31.5661C89.0587 30.6827 88.5727 28.9577 88.7033 27.3842C88.881 24.5824 92.1999 22.9097 97.557 22.9097M100.358 47.6138C101.179 47.6138 101.456 46.4586 100.787 46.2233C98.5762 45.4863 96.8932 44.4513 95.2521 42.8779C95.1476 42.789 95.0274 42.7472 94.9072 42.7472C94.3897 42.7472 93.8776 43.5261 94.4525 44.2056C96.0884 45.9777 98.0797 47.2061 100.207 47.5981C100.259 47.6086 100.306 47.6086 100.353 47.6086M97.5518 21.9636C91.6302 21.9636 87.9716 23.9656 87.7573 27.3215C87.6999 28.0167 87.7469 28.6963 87.8828 29.3236C86.8009 28.9786 85.6563 28.8113 84.4333 28.8113C84.104 28.8113 83.7591 28.8218 83.4141 28.8479C80.5814 28.9786 78.679 31.4667 78.679 35.0527C78.679 36.8613 79.3427 39.0986 82.2068 40.3165C80.0431 42.1931 78.9873 44.7858 78.9873 48.1888C78.9873 51.5918 80.3462 54.4772 83.0222 56.427C86.1006 58.6695 90.9873 59.8038 97.5466 59.8038C112.777 59.8038 115.975 53.484 115.975 48.1888C115.975 44.7649 114.898 42.1618 112.688 40.2852C114.998 39.2345 116.283 37.3108 116.283 34.8122C116.283 31.3308 114.486 29.0465 111.595 28.8531C111.261 28.827 110.916 28.8165 110.581 28.8165C109.353 28.8165 108.182 28.989 107.074 29.334C107.226 28.7067 107.289 28.0324 107.252 27.332C106.986 23.9656 103.358 21.9636 97.5466 21.9636H97.5518Z" fill="black"/>
<path d="M94.3845 38.8424C96.5494 38.8424 98.3044 36.5981 98.3044 33.8295C98.3044 31.0609 96.5494 28.8165 94.3845 28.8165C92.2196 28.8165 90.4647 31.0609 90.4647 33.8295C90.4647 36.5981 92.2196 38.8424 94.3845 38.8424Z" fill="white"/>
<path d="M95.7486 35.6852C95.7486 34.9324 95.1371 34.3209 94.3845 34.3209C93.6319 34.3209 93.0204 34.9324 93.0204 35.6852C93.0204 36.4379 93.6319 37.0495 94.3845 37.0495C95.1371 37.0495 95.7486 36.4379 95.7486 35.6852Z" fill="#231916"/>
<path d="M100.484 38.8424C102.649 38.8424 104.404 36.5981 104.404 33.8295C104.404 31.0609 102.649 28.8165 100.484 28.8165C98.3189 28.8165 96.564 31.0609 96.564 33.8295C96.564 36.5981 98.3189 38.8424 100.484 38.8424Z" fill="white"/>
<path d="M101.848 35.6852C101.848 34.9324 101.236 34.3209 100.484 34.3209C99.7312 34.3209 99.1197 34.9324 99.1197 35.6852C99.1197 36.4379 99.7312 37.0495 100.484 37.0495C101.236 37.0495 101.848 36.4379 101.848 35.6852Z" fill="#231916"/>
<path d="M85.0605 48.9049C85.0605 49.9033 84.6215 50.7083 84.0779 50.7083C83.5344 50.7083 83.0953 49.8981 83.0953 48.9049C83.0953 47.9117 83.5344 47.1015 84.0779 47.1015C84.6215 47.1015 85.0605 47.9117 85.0605 48.9049Z" fill="white"/>
<path d="M88.1755 51.8583C88.1755 52.8568 87.7365 53.6618 87.1929 53.6618C86.6494 53.6618 86.2103 52.8515 86.2103 51.8583C86.2103 50.8652 86.6494 50.0549 87.1929 50.0549C87.7365 50.0549 88.1755 50.8652 88.1755 51.8583Z" fill="white"/>
<path d="M129.757 59.7516C127.515 59.7516 125.142 59.6575 122.294 59.4484C116.393 58.9779 112.463 56.9131 111.219 53.6356C110.017 50.6456 110.252 46.1031 111.219 43.7456C112.421 40.625 114.355 38.6804 120.24 38.6804C124.907 38.6804 128.728 38.4975 132.627 38.095C132.668 38.095 132.867 38.0636 132.862 37.9591C132.862 37.9329 132.846 37.8493 132.689 37.8493H132.621C128.132 38.1891 124.447 38.3459 121.034 38.3459C113.952 38.3459 111.444 37.0652 111.444 33.4479C111.444 31.4563 112.661 29.9352 115.066 28.9263C114.977 28.4559 114.935 27.9802 114.935 27.5045C114.935 23.9029 117.376 20.9756 120.371 20.9756C121.479 20.9756 122.524 21.3572 123.423 22.0838C124.317 21.3572 125.362 20.9756 126.475 20.9756C129.391 20.9756 131.775 23.7409 131.905 27.2013C133.04 27.2327 134.09 27.285 135.104 27.3686C140.017 27.7293 145.212 28.5813 146.487 32.1568C147.506 34.9795 147.501 39.7625 146.477 42.1879C145.844 43.6881 143.947 44.4461 140.843 44.4461C140.717 44.4461 140.587 44.4461 140.456 44.4461C139.907 44.4409 139.369 44.4356 138.841 44.4356C132.36 44.4356 127.139 44.9636 122.879 46.0561C122.597 46.1345 122.508 46.2913 122.519 46.375C122.529 46.4325 122.628 46.4377 122.67 46.4377C122.717 46.4377 122.769 46.4325 122.827 46.4168C126.371 45.6902 131.613 44.8329 136.52 44.8329C143.404 44.8329 148.034 45.9202 148.233 51.2363C148.489 56.8922 143.069 58.4604 138.318 59.1975C135.564 59.5686 132.763 59.7516 129.742 59.7516H129.757Z" fill="#E50050"/>
<path d="M126.48 21.4565C129.219 21.4565 131.445 24.1747 131.445 27.5149C131.445 27.5672 131.44 27.6195 131.44 27.6718C132.663 27.6979 133.876 27.7502 135.073 27.8443C140.43 28.2363 144.945 29.219 146.048 32.3188C147.02 35.0265 147.02 39.6945 146.048 42.0102C145.416 43.5104 143.304 43.9808 140.848 43.9808C140.722 43.9808 140.597 43.9808 140.472 43.9808C139.918 43.9756 139.379 43.9704 138.846 43.9704C132.01 43.9704 126.872 44.5559 122.764 45.6065C121.797 45.8731 121.855 46.9186 122.675 46.9186C122.754 46.9186 122.843 46.9081 122.942 46.8872C126.794 46.0979 131.884 45.3138 136.531 45.3138C143.743 45.3138 147.595 46.5945 147.773 51.2677C147.992 56.1865 143.654 57.9063 138.256 58.7427C135.355 59.1347 132.553 59.2915 129.752 59.2915C127.301 59.2915 124.844 59.1713 122.325 58.9884C116.174 58.497 112.719 56.2806 111.658 53.4788C110.55 50.724 110.686 46.2965 111.658 43.9338C112.719 41.179 114.36 39.1613 120.245 39.1613C124.452 39.1613 128.435 39.0149 132.684 38.5706C133.62 38.4765 133.494 37.384 132.7 37.384C132.668 37.384 132.632 37.384 132.595 37.3893C128.655 37.682 124.808 37.8806 121.045 37.8806C113.874 37.8806 111.925 36.5529 111.925 33.4531C111.925 31.5765 113.132 30.1652 115.62 29.2243C115.489 28.6806 115.416 28.1056 115.416 27.5149C115.416 24.1747 117.642 21.4565 120.381 21.4565C121.51 21.4565 122.571 21.9061 123.433 22.7215C124.296 21.9061 125.357 21.4565 126.486 21.4565M126.486 20.5156C125.404 20.5156 124.348 20.8658 123.433 21.5088C122.524 20.8658 121.463 20.5156 120.381 20.5156C117.125 20.5156 114.47 23.6572 114.47 27.5149C114.47 27.8913 114.496 28.2729 114.548 28.6493C112.181 29.7365 110.979 31.3518 110.979 33.4531C110.979 36.7045 113.012 38.0636 116.503 38.5654C113.158 39.2972 111.721 41.132 110.775 43.5888C109.776 46.0143 109.531 50.7188 110.775 53.8238C112.076 57.2634 116.153 59.4327 122.242 59.9188C125.111 60.1279 127.494 60.2272 129.747 60.2272C132.789 60.2272 135.611 60.0443 138.381 59.6679C143.341 58.8995 148.986 57.2477 148.714 51.2154C148.562 47.2636 146.033 45.549 142.562 44.8381C144.872 44.5768 146.336 43.7561 146.916 42.3813C147.977 39.867 147.982 34.922 146.937 32.0052C145.567 28.1788 140.205 27.2797 135.141 26.9086C134.252 26.8354 133.332 26.7884 132.35 26.757C132.031 23.2547 129.517 20.5208 126.475 20.5208L126.486 20.5156Z" fill="black"/>
<path d="M129.757 59.7515C127.515 59.7515 125.142 59.6574 122.294 59.4483C116.393 58.9779 112.463 56.9131 111.219 53.6356C110.017 50.6456 110.252 46.1031 111.219 43.7456C112.421 40.625 114.355 38.6804 120.24 38.6804C124.907 38.6804 128.728 38.4975 132.627 38.095C132.668 38.095 132.867 38.0636 132.862 37.959C132.862 37.9329 132.846 37.8493 132.689 37.8493H132.621C128.132 38.189 124.447 38.3459 121.034 38.3459C113.952 38.3459 111.444 37.0652 111.444 33.4479C111.444 30.1024 114.71 28.1788 121.432 27.5672C124.604 27.3059 127.385 27.1752 129.935 27.1752C131.759 27.1752 133.447 27.2379 135.099 27.3686C140.012 27.7293 145.207 28.5813 146.482 32.1568C147.501 34.9795 147.496 39.7624 146.472 42.1879C145.839 43.6881 143.942 44.4461 140.837 44.4461C140.712 44.4461 140.581 44.4461 140.451 44.4461C139.902 44.4409 139.364 44.4356 138.836 44.4356C132.355 44.4356 127.134 44.9636 122.874 46.0561C122.592 46.1345 122.503 46.2913 122.513 46.375C122.519 46.4325 122.623 46.4377 122.665 46.4377C122.712 46.4377 122.764 46.4324 122.822 46.4168C126.365 45.6902 131.608 44.8329 136.515 44.8329C143.398 44.8329 148.029 45.9202 148.228 51.2363C148.484 56.8922 143.064 58.4604 138.313 59.1975C135.559 59.5686 132.752 59.7515 129.736 59.7515H129.757Z" fill="#E50050"/>
<path d="M129.951 27.6509C131.686 27.6509 133.395 27.7084 135.078 27.8443C140.435 28.2363 144.951 29.219 146.053 32.3188C147.026 35.0265 147.026 39.6945 146.053 42.0102C145.421 43.5104 143.304 43.9809 140.853 43.9809C140.728 43.9809 140.602 43.9809 140.477 43.9809C139.928 43.9756 139.385 43.9704 138.851 43.9704C132.015 43.9704 126.878 44.5559 122.77 45.6066C121.803 45.8731 121.86 46.9186 122.681 46.9186C122.759 46.9186 122.848 46.9081 122.947 46.8872C126.799 46.0979 131.89 45.3138 136.536 45.3138C143.749 45.3138 147.601 46.5945 147.778 51.2677C147.998 56.1865 143.66 57.9063 138.261 58.7427C135.36 59.1347 132.559 59.2915 129.757 59.2915C127.306 59.2915 124.85 59.1713 122.33 58.9884C116.179 58.497 112.724 56.2806 111.663 53.4788C110.555 50.724 110.691 46.2965 111.663 43.9338C112.724 41.179 114.365 39.1613 120.25 39.1613C124.458 39.1613 128.44 39.015 132.689 38.5706C133.625 38.4766 133.499 37.384 132.705 37.384C132.674 37.384 132.637 37.384 132.601 37.3893C128.66 37.682 124.813 37.8806 121.05 37.8806C113.879 37.8806 111.93 36.5529 111.93 33.4531C111.93 30.3534 115.029 28.6336 121.489 28.0429C124.39 27.8025 127.207 27.6509 129.951 27.6509ZM129.951 26.71C127.385 26.71 124.594 26.8406 121.411 27.102C118.829 27.3372 110.984 28.0534 110.984 33.4531C110.984 36.7045 113.017 38.0636 116.508 38.5654C113.163 39.2972 111.726 41.132 110.78 43.5888C109.782 46.0143 109.536 50.7188 110.78 53.8238C112.081 57.2634 116.158 59.4327 122.247 59.9188C125.116 60.1279 127.499 60.2272 129.752 60.2272C132.794 60.2272 135.616 60.0443 138.386 59.6679C143.346 58.8995 148.991 57.2477 148.719 51.2154C148.567 47.2636 146.038 45.549 142.567 44.8381C144.878 44.5768 146.341 43.7561 146.921 42.3813C147.982 39.867 147.987 34.922 146.942 32.0052C145.573 28.1788 140.21 27.2797 135.146 26.9086C133.489 26.7779 131.79 26.7152 129.951 26.7152V26.71Z" fill="black"/>
<path d="M126.48 33.5681C125.351 33.5681 124.29 33.1186 123.428 32.3031C122.571 33.1186 121.505 33.5681 120.376 33.5681C117.637 33.5681 115.411 30.8499 115.411 27.5097C115.411 24.1695 117.637 21.4513 120.376 21.4513C121.505 21.4513 122.566 21.9008 123.428 22.7163C124.29 21.9008 125.351 21.4513 126.48 21.4513C129.219 21.4513 131.445 24.1695 131.445 27.5097C131.445 30.8499 129.219 33.5681 126.48 33.5681Z" fill="#E50050"/>
<path d="M120.381 32.5227C122.546 32.5227 124.301 30.2783 124.301 27.5097C124.301 24.7411 122.546 22.4968 120.381 22.4968C118.216 22.4968 116.461 24.7411 116.461 27.5097C116.461 30.2783 118.216 32.5227 120.381 32.5227Z" fill="white"/>
<path d="M126.48 32.5227C128.645 32.5227 130.4 30.2783 130.4 27.5097C130.4 24.7411 128.645 22.4968 126.48 22.4968C124.315 22.4968 122.56 24.7411 122.56 27.5097C122.56 30.2783 124.315 32.5227 126.48 32.5227Z" fill="white"/>
<path d="M126.245 27.5672C126.245 26.8145 125.634 26.2029 124.881 26.2029C124.128 26.2029 123.517 26.8145 123.517 27.5672C123.517 28.3199 124.128 28.9315 124.881 28.9315C125.634 28.9315 126.245 28.3199 126.245 27.5672Z" fill="#231916"/>
<path d="M120.146 27.5672C120.146 26.8145 119.534 26.2029 118.782 26.2029C118.029 26.2029 117.418 26.8145 117.418 27.5672C117.418 28.3199 118.029 28.9315 118.782 28.9315C119.534 28.9315 120.146 28.3199 120.146 27.5672Z" fill="#231916"/>
<path d="M142.609 48.9938C142.609 49.9922 142.17 50.7972 141.627 50.7972C141.083 50.7972 140.644 49.987 140.644 48.9938C140.644 48.0006 141.083 47.1904 141.627 47.1904C142.17 47.1904 142.609 48.0006 142.609 48.9938Z" fill="white"/>
<path d="M145.724 51.942C145.724 52.9404 145.285 53.7454 144.742 53.7454C144.198 53.7454 143.759 52.9351 143.759 51.942C143.759 50.9488 144.198 50.1385 144.742 50.1385C145.285 50.1385 145.724 50.9488 145.724 51.942Z" fill="white"/>
<path d="M23.5997 37.3404L23.5834 36.8572C23.5176 34.9037 24.0264 32.8456 24.8957 31.1121L23.5997 37.3404ZM23.5997 37.3404H23.6073M23.5997 37.3404H23.6073M23.6073 37.3404C23.6592 38.4922 23.7605 39.6024 23.864 40.6188C23.8951 40.9241 23.9262 41.2197 23.9563 41.505C24.0411 42.3096 24.1172 43.0323 24.1591 43.6585C24.2354 44.8187 24.0517 45.9541 23.8071 47.1354C23.7563 47.3811 23.7025 47.6298 23.6481 47.8813C23.445 48.821 23.2335 49.7988 23.136 50.7956L23.136 50.796C22.9475 52.7404 23.594 54.775 24.7377 56.4174C25.8813 58.0596 27.5566 59.3583 29.4808 59.775C32.5929 60.4498 34.9938 60.34 36.8703 59.7657C38.7509 59.1902 40.0684 58.1592 41.0283 57.0531C42.6631 55.177 43.2848 52.3176 43.4855 49.9774L43.4855 49.9768C43.7954 46.3052 43.8965 42.8234 43.5478 39.1351C43.5061 38.6939 43.4695 38.2365 43.4322 37.7697C43.3186 36.3471 43.1979 34.8367 42.9024 33.4276C42.507 31.5424 41.7831 29.7413 40.2706 28.4471C39.1895 27.5219 37.5953 27.0095 36 26.759C34.3919 26.5064 32.7109 26.5089 31.3924 26.6683C28.6911 26.995 26.1275 28.6537 24.8957 31.1119L23.6073 37.3404Z" fill="#E50050" stroke="black"/>
<path d="M38.8165 38.2151C39.1667 38.1472 39.5378 38.3406 39.6319 38.696C39.7312 39.0463 39.5221 39.4122 39.1667 39.4854C37.7451 39.8251 35.9995 40.0342 34.0814 40.1179C34.0814 40.6406 34.0657 41.1999 34.0395 41.7644C34.0239 42.1565 33.6894 42.4544 33.2922 42.4283C32.8949 42.4022 32.6179 42.0624 32.6284 41.6651C32.6545 41.1424 32.6702 40.6354 32.6702 40.144H32.6023C31.1232 40.144 29.6441 40.0604 28.28 39.8931C27.9298 39.8513 27.6737 39.5115 27.7155 39.1613C27.773 38.7954 28.1075 38.5549 28.4629 38.5967C29.8165 38.7535 31.2643 38.8215 32.6754 38.8215C32.6754 38.3719 32.6597 37.9642 32.6493 37.6088C32.2678 37.6088 31.8862 37.6244 31.5099 37.6244C30.057 37.6244 28.651 37.5408 27.3967 37.384C27.0308 37.3422 26.7904 37.0024 26.8479 36.6522C26.9054 36.2863 27.2399 36.0458 27.5953 36.1033C28.4681 36.2026 29.3984 36.2706 30.3287 36.3019C30.0883 35.5544 29.78 34.556 29.5657 33.9079C29.5395 33.7929 29.5239 33.6988 29.5395 33.6099C29.0064 33.636 28.5413 33.6517 28.1598 33.6779C27.8096 33.704 27.4855 33.4374 27.4542 33.0872C27.4124 32.7213 27.6789 32.4129 28.0343 32.3815C29.0326 32.3135 30.726 32.2404 32.5395 32.1829C32.5239 32.141 32.5239 32.0992 32.5239 32.0679C32.5082 31.8013 32.4977 31.4772 32.4664 31.0799C31.1545 31.1479 29.9159 31.2367 29.1423 31.3047C28.7765 31.3465 28.4368 31.106 28.3793 30.7401C28.3218 30.3899 28.5622 30.0501 28.928 30.0083C29.7434 29.9247 31.0239 29.841 32.4037 29.7574C32.4037 29.7156 32.388 29.6581 32.388 29.6163C32.3618 29.2242 32.6284 28.8531 33.0099 28.7851C33.3915 28.7172 33.7573 28.9838 33.7834 29.3601C33.7991 29.4594 33.7991 29.5692 33.8096 29.6999C35.205 29.632 36.5848 29.6006 37.5831 29.632C37.9489 29.632 38.2312 29.9404 38.205 30.3063C38.1789 30.6722 37.8653 30.9388 37.4995 30.9388C36.543 30.9126 35.2155 30.9545 33.8671 31.0067C33.8827 31.357 33.9089 31.796 33.9246 32.1358C35.2887 32.094 36.658 32.0679 37.7712 32.0679C38.1214 32.0679 38.4455 32.0835 38.7434 32.0835C39.1092 32.0835 39.3915 32.3919 39.3758 32.7474C39.3601 33.1133 39.0517 33.3799 38.7016 33.3799H37.0814C36.9977 33.7876 36.8984 34.2529 36.7834 34.7181C36.658 35.199 36.5169 35.6329 36.3601 36.0144C37.3165 35.889 38.1894 35.7322 38.9211 35.5649C39.2712 35.4656 39.6266 35.6642 39.7364 36.004C39.8357 36.3438 39.6528 36.7097 39.2974 36.809C37.9176 37.1488 36.057 37.4154 34.0448 37.5408C34.0604 37.9067 34.0709 38.3301 34.0709 38.7954C35.8165 38.7274 37.4629 38.5288 38.8009 38.2204L38.8165 38.2151ZM35.6597 33.3956C34.1127 33.4217 32.3932 33.4792 30.9298 33.5367C31.1702 34.3417 31.5047 35.382 31.7347 36.0876C31.7608 36.1556 31.7765 36.2445 31.7765 36.3281C32.2678 36.3124 32.7591 36.3019 33.2556 36.2863H33.3706C33.8618 36.2601 34.327 36.2288 34.7922 36.1869C34.8078 36.119 34.834 36.0615 34.8601 35.9883C35.1685 35.3558 35.4507 34.4672 35.665 33.3956H35.6597Z" fill="white"/>
<path d="M30.1981 45.7633C30.6894 45.9463 31.1127 46.2704 31.395 46.7356C31.6772 47.2008 31.8183 47.7653 31.8183 48.424V48.4501C31.7765 49.3963 31.327 50.4104 30.4646 51.4663C30.9141 51.9158 31.3113 52.3131 31.604 52.5954C31.8706 52.8515 31.8706 53.2697 31.6197 53.5258C31.3793 53.7924 30.9559 53.7924 30.7051 53.5519C30.5221 53.3847 30.3131 53.1703 30.0727 52.9299C30.0465 54.059 30.0988 55.324 30.1406 56.0872C30.1563 56.4688 29.874 56.7928 29.5082 56.819C29.1423 56.8451 28.8183 56.5628 28.7922 56.1969C28.7503 55.4913 28.7085 54.336 28.7242 53.2383C28.4002 53.5206 28.1023 53.761 27.8671 53.944C27.5692 54.1531 27.1615 54.0851 26.9681 53.7767C26.7695 53.4788 26.8427 53.071 27.1354 52.8463C27.5169 52.5483 28.05 52.1144 28.5883 51.5917C29.8009 50.4103 30.4751 49.2969 30.5169 48.4083C30.5169 47.6765 30.2504 47.1694 29.7695 47.0126C29.4873 46.8976 29.1058 46.929 28.7399 47.0806C28.4577 47.1956 28.1911 47.3629 27.9246 47.6033C27.658 47.8438 27.2504 47.9013 26.9681 47.6608C26.6859 47.4517 26.6284 47.0283 26.9002 46.7722C27.3078 46.3644 27.773 46.056 28.2538 45.8574C28.5936 45.7319 28.9176 45.6588 29.2364 45.6326C29.5761 45.6169 29.9106 45.6588 30.2085 45.7581L30.1981 45.7633ZM27.8618 44.6499C27.5117 44.5819 27.2817 44.2265 27.3549 43.8763C27.4228 43.526 27.7625 43.2856 28.1179 43.3692C28.9071 43.5522 29.9629 43.8344 30.726 44.216C31.05 44.3729 31.1075 44.791 30.8828 45.0629C30.658 45.3608 30.2504 45.4288 29.8949 45.2719C29.4037 45.0628 28.6824 44.8485 27.8671 44.6499H27.8618ZM40.0866 53.0188C40.2434 53.8499 40.2695 54.864 40.1441 56.1028C40.1179 56.4426 39.8044 56.6779 39.4699 56.636C39.2608 56.6099 39.0727 56.4792 38.989 56.2963C38.9734 56.2963 38.9629 56.2963 38.9472 56.3119C37.8183 56.7197 36.5953 56.7929 35.7904 56.7929H35.5239C34.719 56.7772 33.7469 56.6674 33.0465 56.4113C32.9472 56.6203 32.7643 56.7772 32.5239 56.8033C32.1998 56.8451 31.8915 56.5942 31.8758 56.2701C31.8497 55.6376 31.8497 54.749 31.9019 53.8342C31.9594 52.6947 32.0692 51.806 32.2416 51.184C32.3253 50.8599 32.6911 50.7344 32.9995 50.8756C33.0413 50.9017 33.0831 50.9331 33.1092 50.9592C33.1511 50.9331 33.1929 50.9017 33.2503 50.8913C34.2643 50.5828 35.1789 50.3267 36.0517 50.2274C36.6319 50.1438 37.1336 50.1594 37.5883 50.2431C38.1214 50.3267 38.5761 50.541 38.9524 50.8494C39.2347 51.0899 39.4751 51.3826 39.6737 51.7485C39.8566 52.1144 39.9977 52.5379 40.0814 53.0188H40.0866ZM33.0883 44.974C32.7643 45.0733 32.3984 44.9479 32.2573 44.6238C32.1162 44.3258 32.2416 43.9494 32.5657 43.8501C32.9159 43.7351 33.3288 43.641 33.7626 43.5522C34.4263 43.4372 35.1737 43.3692 35.9054 43.3535C36.6685 43.3535 37.4106 43.3954 38.0744 43.5104C38.5657 43.594 39.0047 43.709 39.3967 43.8344C39.7051 43.9494 39.8305 44.3258 39.6894 44.6238C39.5326 44.9322 39.1667 45.0628 38.8322 44.9635C37.212 44.4408 34.6354 44.514 33.0883 44.9792V44.974ZM38.8061 46.1135C39.0308 46.3958 39.2138 46.7356 39.3444 47.1119C39.5535 47.7444 39.6371 48.4919 39.5953 49.3649C39.5796 49.7047 39.2713 49.9556 38.9211 49.9138C38.7538 49.8981 38.6127 49.8144 38.5134 49.689C38.4455 49.7465 38.3566 49.7883 38.2573 49.804C37.3688 49.9294 36.4124 49.9608 35.78 49.9608H35.5709C34.9385 49.9451 34.1911 49.919 33.6267 49.8354C33.5587 49.8354 33.5012 49.8092 33.4437 49.7778C33.3444 49.919 33.1876 50.0183 33.0047 50.0288C32.665 50.0863 32.3723 49.8458 32.3566 49.506C32.3409 49.0565 32.3566 48.4919 32.3984 47.9431C32.4664 47.2269 32.5657 46.631 32.7068 46.1815C32.7904 45.8835 33.1301 45.7738 33.3967 45.8992C33.4385 45.8417 33.4803 45.8156 33.5378 45.7842C34.1859 45.4026 34.8601 45.1517 35.5239 45.0367C36.4646 44.8694 37.327 44.9949 38.0169 45.4026C38.3096 45.5856 38.5814 45.8104 38.8061 46.1083V46.1135ZM33.0883 55.3972C33.2556 55.3292 33.4803 55.3135 33.6789 55.371C34.0866 55.486 34.6929 55.5801 35.4821 55.6115C35.4246 55.486 35.3984 55.3449 35.3984 55.2038C35.4246 54.9215 35.4246 54.5399 35.3984 54.0329C35.3828 53.9649 35.3828 53.8917 35.3828 53.8342C35.2573 53.8342 35.1267 53.8499 35.0012 53.8499C34.1859 53.9178 33.5378 54.0329 33.0988 54.1322C33.0831 54.5817 33.0831 55.0051 33.0831 55.4024L33.0883 55.3972ZM33.6214 52.0726C33.5117 52.0988 33.3967 52.0988 33.2974 52.0883C33.2556 52.3392 33.2138 52.6215 33.1824 52.9351C33.7887 52.8097 34.4524 52.7365 34.9019 52.6947C35.0274 52.6947 35.1528 52.679 35.2835 52.6685C35.2416 52.3601 35.2155 52.0465 35.1737 51.7695V51.6544C34.6929 51.7694 34.1754 51.9054 33.6267 52.0779L33.6214 52.0726ZM38.0169 48.6383C38.1267 48.6226 38.2416 48.6383 38.3566 48.6801C38.3409 48.241 38.273 47.8647 38.158 47.5249C37.9908 47.044 37.719 46.6938 37.3688 46.4847C36.8357 46.1606 36.1876 46.2024 35.7382 46.2756C35.2573 46.3592 34.7504 46.5578 34.2591 46.8244C34.1023 46.9081 33.935 46.9394 33.7782 46.9081C33.7207 47.1903 33.6632 47.5824 33.6214 48.0633C33.6058 48.2881 33.5953 48.5285 33.5796 48.7533C33.7051 48.6958 33.8305 48.6697 33.9716 48.6853C34.3636 48.7272 34.9281 48.769 35.5761 48.769C36.4646 48.7847 37.3218 48.7272 38.0117 48.6435L38.0169 48.6383ZM38.4246 55.2299C38.6075 55.1724 38.8061 55.1881 38.9734 55.2717C39.057 53.484 38.7904 52.3131 38.1685 51.7903C37.7347 51.4401 37.1127 51.3513 36.3392 51.4401C36.3653 51.4976 36.381 51.5551 36.381 51.6231C36.4228 51.921 36.4646 52.2713 36.496 52.6372C36.9298 52.6372 37.327 52.6529 37.6667 52.679C37.9751 52.7051 38.1894 53.0188 38.1319 53.3272C38.0744 53.6513 37.7817 53.8499 37.4577 53.8342C37.2016 53.8081 36.9089 53.7924 36.6005 53.7924C36.6162 53.8499 36.6162 53.9074 36.6162 53.9597C36.658 54.6235 36.658 55.141 36.6005 55.5644V55.5801C37.2747 55.5226 37.8967 55.4129 38.4298 55.2299H38.4246Z" fill="white"/>
<path d="M27.7939 77.2158C26.6493 78.3606 24.7678 78.6481 23.5448 77.6915C22.4002 76.8133 22.165 75.3288 22.9856 73.7868C24.6842 70.6243 27.3392 67.3572 29.6755 65.2088C30.8723 64.1215 32.4089 64.064 33.4438 64.7854C34.7452 65.6897 35.0378 67.0436 34.2957 68.4758C33.8985 69.2704 33.2086 70.3629 32.4089 71.5286C33.8985 71.7429 35.3305 72.0618 36.2608 72.5636C37.4316 73.2013 37.7765 74.6336 37.2957 75.8829C36.8148 77.1583 35.5971 77.8222 34.1598 77.7699C32.2992 77.6915 30.4438 76.9179 28.9281 75.9927C28.557 76.4161 28.1598 76.8447 27.7887 77.2158H27.7939ZM44.7382 84.4661C44.7382 88.0781 41.3148 90.0436 35.3357 90.0436C29.3566 90.0436 25.9856 88.0781 25.9856 84.4661C25.9856 80.854 29.3305 78.8886 35.3357 78.8886C41.341 78.8886 44.7382 80.854 44.7382 84.4661ZM38.1006 84.4661C38.1006 83.8806 37.4107 83.5879 35.3671 83.5879C33.3235 83.5879 32.6337 83.8806 32.6337 84.4661C32.6337 85.0515 33.2974 85.3443 35.3671 85.3443C37.4368 85.3443 38.1006 85.0515 38.1006 84.4661ZM44.9263 75.9665C44.7957 77.9842 43.7556 79.0454 42.0047 79.0454C40.2539 79.0454 39.0309 78.0365 38.8427 76.0449C38.5762 73.1229 38.5239 69.7774 38.8166 66.9338C39.0309 64.7802 40.5152 64.064 41.9786 64.064C43.442 64.064 44.7957 64.8324 44.9263 66.9338C45.1145 69.7252 45.1145 73.0706 44.9263 75.9665Z" fill="#E50050"/>
<path d="M72.3549 80.7494C72.3549 81.9988 71.7695 83.1383 69.8566 83.3003C68.1319 83.4624 65.9002 83.5408 63.5117 83.5931C63.5901 84.7378 63.564 85.7729 63.4333 86.834C63.1929 88.7733 62.0796 89.756 60.1667 89.756C58.2539 89.756 57.1406 88.7733 56.8741 86.834C56.7173 85.7729 56.6859 84.7378 56.7434 83.5931C54.5117 83.5669 52.4159 83.4885 50.6598 83.3526C48.773 83.2219 47.9263 82.2078 47.9263 80.7494C47.9263 79.291 48.7782 78.439 50.6598 78.3867C56.2103 78.2299 64.8392 78.1724 69.8619 78.3867C71.7748 78.4651 72.3601 79.5001 72.3601 80.7494H72.3549ZM52.6511 72.0356H52.7817C52.7556 71.241 52.7556 70.4674 52.7817 69.7251C51.0309 69.5944 50.1528 68.664 50.1528 67.3363C50.1528 66.0085 51.0831 65.214 52.9699 65.0781C56.7382 64.8115 64.4681 64.7854 67.5518 65.0781C69.4647 65.2663 70.1546 66.1654 70.1546 67.3363C70.1546 68.5072 69.4647 69.4899 67.5518 69.5944H67.3636C67.3898 70.3628 67.3898 71.1626 67.3636 71.931L67.8967 71.9833C69.8096 72.1715 70.4995 73.1281 70.4995 74.2938C70.4995 75.4594 69.8096 76.4997 67.8967 76.6042C64.7086 76.7924 56.3723 76.8969 52.6511 76.7349C50.7643 76.6565 49.834 75.6738 49.834 74.2938C49.834 72.9138 50.7643 72.1715 52.6511 72.0356ZM58.3584 71.8213C59.4716 71.7951 60.6424 71.7951 61.7817 71.7951C61.7556 71.1051 61.7556 70.4413 61.7817 69.7774C60.6685 69.7774 59.4716 69.8035 58.327 69.8035C58.3532 70.4674 58.3532 71.1313 58.3532 71.8213H58.3584Z" fill="#E50050"/>
<path d="M77.7957 78.3867C75.4072 78.1724 74.3984 77.1897 74.1842 75.5954C73.9437 73.7867 73.9699 70.8699 74.2103 68.2406C73.996 67.9479 73.8654 67.4983 73.8654 66.8867C73.8654 65.3186 74.9263 64.9997 76.28 64.8951C78.8305 64.6808 83.2626 64.6808 85.3897 64.869C86.8741 64.9997 87.726 65.3761 87.726 66.8606C87.726 68.4811 86.9577 68.9567 85.4681 69.0665C84.1929 69.1711 81.9873 69.1972 79.9699 69.1711V69.8349C81.9089 69.7827 83.8218 69.8349 85.3636 69.9133C86.2939 69.9656 87.1667 70.2583 87.1667 71.5861C87.1667 72.8354 86.2364 73.1542 85.3636 73.2327C83.9838 73.3633 81.7782 73.4208 79.8653 73.3372L79.7608 74.1056C80.8218 74.0795 83.8532 74.0272 85.6302 74.1056C87.172 74.184 88.3375 74.2938 88.3636 76.0972C88.3897 77.8483 87.1667 78.0888 85.6302 78.3031C84.3288 78.4913 80.0012 78.5697 77.7957 78.3815V78.3867ZM95.0587 84.7327C95.0587 88.2402 91.7922 90.2056 85.5256 90.2056C79.2591 90.2056 76.0448 88.2402 76.0448 84.7327C76.0448 81.2252 79.2591 79.2597 85.5256 79.2597C91.7922 79.2597 95.0587 81.2252 95.0587 84.7327ZM88.4211 84.7327C88.4211 84.2256 87.7312 83.9642 85.5518 83.9642C83.3723 83.9642 82.6824 84.2308 82.6824 84.7327C82.6824 85.2345 83.3462 85.5011 85.5518 85.5011C87.7573 85.5011 88.4211 85.2345 88.4211 84.7327ZM98.6441 71.5599C98.6441 73.7136 97.7922 74.6649 96.0674 74.7747H95.3775L95.2991 76.4213C95.1685 78.439 93.8671 79.5838 92.0849 79.5838C90.3026 79.5838 89.2939 78.4965 89.1371 76.5049C88.8706 73.264 88.8967 69.469 89.1371 66.9442C89.3514 64.7906 90.8357 64.0745 92.3253 64.0745C93.8148 64.0745 95.1424 64.8429 95.2991 66.9442L95.3775 68.5647C95.6702 68.5124 95.989 68.4863 96.3079 68.4863C97.8758 68.4863 98.6441 69.4952 98.6441 71.5652V71.5599Z" fill="#231916"/>
<path d="M123.867 81.8106C123.867 83.0599 123.282 84.2256 121.369 84.3615C119.644 84.4922 117.439 84.5758 115.076 84.602C115.076 85.4279 115.05 86.2224 114.945 87.017C114.705 88.9563 113.592 89.939 111.679 89.939C109.766 89.939 108.679 88.9563 108.386 87.017C108.282 86.2224 108.229 85.4227 108.229 84.602C106.024 84.5758 103.928 84.5236 102.177 84.4138C100.29 84.3092 99.4437 83.2742 99.4437 81.8106C99.4437 80.347 100.296 79.6308 102.177 79.5524C107.728 79.312 116.357 79.3381 121.379 79.5524C123.292 79.6308 123.878 80.5613 123.878 81.8106H123.867ZM100.761 68.5281C100.761 66.9338 101.874 65.9249 103.656 65.8465L108.198 65.6897C108.329 63.8026 109.923 63.327 111.621 63.327C113.32 63.327 114.888 63.7765 115.019 65.6897C116.613 65.7158 118.181 65.7681 119.613 65.8465C121.39 65.9511 122.456 66.9338 122.456 68.5281C122.456 70.1224 121.395 71.1836 119.613 71.2358H119.534C119.801 71.8474 119.905 72.4852 119.905 73.0706C119.905 75.4595 118.097 78.5174 111.674 78.5174C104.743 78.5174 103.416 75.4647 103.416 73.0706C103.416 72.4852 103.494 71.8474 103.735 71.2358H103.656C101.874 71.1836 100.761 70.0911 100.761 68.5281ZM113.801 72.6158C113.801 71.6854 112.975 71.3665 111.731 71.3665C110.487 71.3665 109.662 71.6854 109.662 72.6158C109.662 73.5463 110.54 73.839 111.731 73.839C112.923 73.839 113.801 73.5201 113.801 72.6158Z" fill="#231916"/>
<path d="M149.357 82.2915C149.357 83.5408 148.771 84.5497 146.858 84.7065C145.134 84.8633 142.902 84.9469 140.54 84.9992C140.513 85.6631 140.487 86.3008 140.409 86.9908C140.195 88.9301 139.055 89.9128 137.142 89.9128C135.229 89.9128 134.116 88.9301 133.85 86.9908C133.745 86.3008 133.693 85.6631 133.693 84.9992C131.487 84.9731 129.391 84.8685 127.667 84.7588C125.78 84.6281 124.933 83.6976 124.933 82.234C124.933 80.7704 125.785 80.0804 127.667 80.0281C133.217 79.8399 141.846 79.8138 146.869 80.0281C148.782 80.1065 149.367 81.0369 149.367 82.2863L149.357 82.2915ZM127.024 66.9651C126.998 65.4492 127.98 64.8951 129.601 64.7592C133.16 64.4665 139.081 64.4142 142.693 64.7331C145.055 64.9474 146.304 65.4492 146.571 67.4931C146.728 68.664 146.702 69.9342 146.545 71.0267C146.331 72.5426 145.296 73.2326 143.2 73.4417C140.597 73.7083 135.925 73.6822 134.142 73.5724V74.4767C136.055 74.3722 141.339 74.184 144.235 74.346C146.304 74.4506 147.235 74.9576 147.235 76.4422C147.235 77.9267 146.409 78.5958 144.339 78.7265C140.916 78.9408 135.496 78.9931 132.282 78.7788C129.439 78.5906 127.928 78.3031 127.531 76.4422C127.212 74.9263 127.238 73.0183 127.479 72.0042C127.824 70.572 128.832 70.2531 130.959 70.1433C133.4 70.0126 138.104 69.9551 139.855 70.0388V69.0299C137.148 69.1867 131.994 69.3226 129.815 69.2181C127.85 69.1135 127.055 68.3138 127.029 66.9599L127.024 66.9651Z" fill="#231916"/>
</g>
<defs>
<clipPath id="clip0_195_1301">
<rect width="180" height="110" fill="white"/>
</clipPath>
</defs>
</svg>
